<?xml version="1.0" encoding="UTF-8"?>
<svg version="1.1" xmlns="http://www.w3.org/2000/svg" width="500" height="500">
<path d="M0 0 C5.00028314 1.34153938 9.19067503 3.48370003 13 7 C13 7.66 13 8.32 13 9 C13.66 9 14.32 9 15 9 C15 9.66 15 10.32 15 11 C15.66 11 16.32 11 17 11 C24.22951592 20.47676304 29.04842092 30.95235607 28 43 C26.57795746 49.81599702 24.28676542 56.43163125 22 63 C22.99 62.67 23.98 62.34 25 62 C25.72455635 60.35767228 26.37774395 58.68375165 27 57 C28.27233737 54.62726275 29.63446403 52.32141114 31 50 C33.9719385 51.12451727 36.33440687 52.22293791 39 54 C39 54.66 39 55.32 39 56 C39.66 56 40.32 56 41 56 C41 56.66 41 57.32 41 58 C41.66 58 42.32 58 43 58 C49.26402216 65.91033568 51.03797628 74.05793809 50 84 C48.51762997 89.27957405 46.2538994 94.56286446 43 99 C42.34 99 41.68 99 41 99 C41 99.66 41 100.32 41 101 C35.64779354 105.54241635 29.72550695 108.21253257 23 110 C22.33613281 110.18433594 21.67226562 110.36867188 20.98828125 110.55859375 C8.4523956 113.34160962 -4.26987627 107.85379862 -14.6875 101.3125 C-23.68609407 92.31390593 -28.33944768 82.09867808 -28.4375 69.4375 C-28.20926764 56.3956506 -23.05395347 46.31017244 -17 35 C-16.484375 34.01644531 -15.96875 33.03289062 -15.4375 32.01953125 C-14.963125 31.35308594 -14.48875 30.68664062 -14 30 C-13.01 30 -12.02 30 -11 30 C-11 30.99 -11 31.98 -11 33 C-10.34 33 -9.68 33 -9 33 C-8.34 37.62 -7.68 42.24 -7 47 C-6.67 46.34 -6.34 45.68 -6 45 C-5.34 45 -4.68 45 -4 45 C-2.92125368 42.02266016 -1.93704193 39.02491692 -1 36 C-0.77570313 35.27683594 -0.55140625 34.55367187 -0.3203125 33.80859375 C2.10275592 24.26568731 0.92113608 13.65563303 -0.60546875 4.01171875 C-0.73566406 3.01785156 -0.86585937 2.02398437 -1 1 C-0.67 0.67 -0.34 0.34 0 0 Z M3 59 C-3.63092076 67.19442208 -6.07070941 74.45763039 -5 85 C-3.21614146 91.68382439 1.41837052 96.15865044 7 100 C13.32752589 102.97765924 20.25708648 102.19351312 27 101 C30.4800934 99.48658003 30.4800934 99.48658003 33 97 C33.52078125 96.56558594 34.0415625 96.13117188 34.578125 95.68359375 C39.28924752 91.48703559 41.42026722 87.02234348 42.31640625 80.8046875 C42.69826946 73.73405901 40.40538299 67.73946396 35.75 62.4375 C35.1725 61.963125 34.595 61.48875 34 61 C33.34 62.65 32.68 64.3 32 66 C32.66 66 33.32 66 34 66 C34.309375 66.78375 34.61875 67.5675 34.9375 68.375 C35.92875038 70.92330128 35.92875038 70.92330128 37 73 C38.00356875 85.8919985 38.00356875 85.8919985 34 91 C31.3125 91.875 31.3125 91.875 29 92 C29.4912183 89.21642962 30.09141873 86.76637436 31.125 84.125 C32.17732862 80.3666835 31.8885453 77.77631752 31 74 C30.34 73.67 29.68 73.34 29 73 C28.5875 73.763125 28.175 74.52625 27.75 75.3125 C25.95567104 78.06807662 24.93247115 79.53376443 22 81 C18.5 81.125 18.5 81.125 15 80 C10.94030915 75.21164669 10.44620115 71.04621072 10.66015625 64.8671875 C11.19166479 60.38296603 12.45783738 56.23176765 14 52 C9.71109722 52 6.01074341 56.23214009 3 59 Z " fill="#7559D5" transform="translate(114,190)"/>
<path d="M0 0 C5.00028314 1.34153938 9.19067503 3.48370003 13 7 C13 7.66 13 8.32 13 9 C13.66 9 14.32 9 15 9 C15 9.66 15 10.32 15 11 C15.66 11 16.32 11 17 11 C24.40150566 20.70221464 28.46043491 29.67165335 27 42 C26.34 42.66 25.68 43.32 25 44 C24.32348793 46.19704511 24.32348793 46.19704511 23.875 48.625 C23.70742187 49.44226563 23.53984375 50.25953125 23.3671875 51.1015625 C23.24601562 51.72804687 23.12484375 52.35453125 23 53 C21.35 52.67 19.7 52.34 18 52 C18 50.68 18 49.36 18 48 C16.39120578 48.39842559 14.78801827 48.81953157 13.1875 49.25 C11.84751953 49.59804687 11.84751953 49.59804687 10.48046875 49.953125 C7.59791514 51.16969881 6.79250934 52.51411312 5 55 C4.01 55 3.02 55 2 55 C1.67 54.34 1.34 53.68 1 53 C0.01 53.495 0.01 53.495 -1 54 C-1.99 52.68 -2.98 51.36 -4 50 C-5.98 50.495 -5.98 50.495 -8 51 C-8 50.34 -8 49.68 -8 49 C-7.34 49 -6.68 49 -6 49 C-6 47.68 -6 46.36 -6 45 C-5.34 45 -4.68 45 -4 45 C-2.92125368 42.02266016 -1.93704193 39.02491692 -1 36 C-0.77570313 35.27683594 -0.55140625 34.55367187 -0.3203125 33.80859375 C2.10275592 24.26568731 0.92113608 13.65563303 -0.60546875 4.01171875 C-0.80076172 2.52091797 -0.80076172 2.52091797 -1 1 C-0.67 0.67 -0.34 0.34 0 0 Z " fill="#2F98DD" transform="translate(114,190)"/>
<path d="M0 0 C0.33 0 0.66 0 1 0 C1.50898299 10.34932077 -1.63113625 19.32347647 -5 29 C-4.01 28.67 -3.02 28.34 -2 28 C-1.27544365 26.35767228 -0.62225605 24.68375165 0 23 C1.27233737 20.62726275 2.63446403 18.32141114 4 16 C6.9719385 17.12451727 9.33440687 18.22293791 12 20 C12 20.66 12 21.32 12 22 C12.66 22 13.32 22 14 22 C14 22.66 14 23.32 14 24 C14.66 24 15.32 24 16 24 C22.48943843 32.19499597 23.29623159 39.829382 23 50 C22.34 50 21.68 50 21 50 C20.34 47.69 19.68 45.38 19 43 C18.01 43.33 17.02 43.66 16 44 C16 45.65 16 47.3 16 49 C15.67 49 15.34 49 15 49 C14.85304688 47.83984375 14.85304688 47.83984375 14.703125 46.65625 C13.74502068 39.98255786 12.37138553 34.84373493 9 29 C8.34 29 7.68 29 7 29 C6.34 29.99 5.68 30.98 5 32 C5.66 32 6.32 32 7 32 C11.46066779 38.13341822 11.88152295 43.52261124 11 51 C9.67075969 54.50436082 8.6165916 56.3834084 6 59 C3.375 58.625 3.375 58.625 1 58 C1.4912183 55.21642962 2.09141873 52.76637436 3.125 50.125 C4.16622872 46.40632601 3.75055738 43.75278691 3 40 C2.63648438 40.49371094 2.27296875 40.98742187 1.8984375 41.49609375 C-0.5959064 44.67478329 -2.20459578 46.70781069 -6.0625 48.125 C-9.69151379 47.97057388 -11.21585131 47.33266511 -14 45 C-17.77356034 39.79508919 -17.79017365 34.17998969 -17 28 C-15.93100551 24.524611 -14.58811544 21.2683983 -13 18 C-14.58689029 19.0781163 -16.16936082 20.16273952 -17.75 21.25 C-18.63171875 21.85328125 -19.5134375 22.4565625 -20.421875 23.078125 C-22.85433494 24.89141332 -24.91728069 26.80049269 -27 29 C-27.66 28.67 -28.32 28.34 -29 28 C-29 27.34 -29 26.68 -29 26 C-28.34 26 -27.68 26 -27 26 C-27.33 24.02 -27.66 22.04 -28 20 C-26.68 19.34 -25.36 18.68 -24 18 C-24.33 18.99 -24.66 19.98 -25 21 C-24.01 20.67 -23.02 20.34 -22 20 C-21.566875 19.01 -21.566875 19.01 -21.125 18 C-20 16 -20 16 -17.75 15.3125 C-16.8425 15.209375 -15.935 15.10625 -15 15 C-13.906875 14.814375 -12.81375 14.62875 -11.6875 14.4375 C-10.800625 14.293125 -9.91375 14.14875 -9 14 C-9 15.32 -9 16.64 -9 18 C-8.01 17.67 -7.02 17.34 -6 17 C-6 17.66 -6 18.32 -6 19 C-5.34 19 -4.68 19 -4 19 C-3.95101562 18.37351563 -3.90203125 17.74703125 -3.8515625 17.1015625 C-3.77679688 16.28429687 -3.70203125 15.46703125 -3.625 14.625 C-3.55539063 13.81289062 -3.48578125 13.00078125 -3.4140625 12.1640625 C-3 10 -3 10 -1 8 C-0.54188325 6.02764667 -0.54188325 6.02764667 -0.375 3.875 C-0.25125 2.59625 -0.1275 1.3175 0 0 Z " fill="#5A70D0" transform="translate(141,224)"/>
<path d="M0 0 C4.0384057 -0.0744389 8.07654293 -0.12873729 12.11547852 -0.16479492 C13.48794517 -0.17983432 14.86036414 -0.20027133 16.23266602 -0.22631836 C18.21088656 -0.26291221 20.18946514 -0.27816698 22.16796875 -0.29296875 C23.35672607 -0.3086792 24.5454834 -0.32438965 25.77026367 -0.34057617 C30.28948538 0.13597642 32.8335994 1.8335994 36 5 C37.11251142 8.20884957 37.14378066 11.29128975 37.17700195 14.66723633 C37.19625481 16.3746978 37.19625481 16.3746978 37.21589661 18.11665344 C37.22328354 19.34272812 37.23067047 20.5688028 37.23828125 21.83203125 C37.246353 23.09714035 37.25442474 24.36224945 37.26274109 25.66569519 C37.27657083 28.34300386 37.28759062 31.02018989 37.29516602 33.69750977 C37.30622202 37.11381631 37.34062408 40.52947003 37.38033772 43.94554615 C37.41288802 47.22014251 37.41728923 50.49479778 37.42578125 53.76953125 C37.44328934 54.98953323 37.46079742 56.20953522 37.47883606 57.46650696 C37.46178086 64.15763319 37.23282553 68.6730632 33 74 C29.92161704 76.312352 27.13847632 76.23551571 23.359375 76.1953125 C22.28945312 76.18886719 21.21953125 76.18242187 20.1171875 76.17578125 C18.45042969 76.15064453 18.45042969 76.15064453 16.75 76.125 C15.06003906 76.11146484 15.06003906 76.11146484 13.3359375 76.09765625 C10.55707635 76.07410658 7.7786461 76.0412168 5 76 C5 72 5 72 6.953125 69.79296875 C10.96772078 67.43053354 14.17313792 67.37038611 18.75 67.3125 C23.77425889 67.64141278 23.77425889 67.64141278 28 66 C28.09887792 64.25617465 28.12799032 62.50834457 28.12939453 60.76171875 C28.13254669 59.64385986 28.13569885 58.52600098 28.13894653 57.37426758 C28.1369223 56.15763428 28.13489807 54.94100098 28.1328125 53.6875 C28.13376923 52.44830811 28.13472595 51.20911621 28.13571167 49.93237305 C28.13639374 47.30611719 28.13503538 44.67995367 28.13037109 42.05371094 C28.12467381 38.68071286 28.12795302 35.30779435 28.13394356 31.93479919 C28.1384177 28.72736323 28.13528882 25.519937 28.1328125 22.3125 C28.13483673 21.0958667 28.13686096 19.8792334 28.13894653 18.62573242 C28.13579437 17.50787354 28.13264221 16.39001465 28.12939453 15.23828125 C28.12859894 14.24868408 28.12780334 13.25908691 28.12698364 12.23950195 C28.25100848 10.0290275 28.25100848 10.0290275 27 9 C25.09798345 8.86625123 23.19139413 8.79648372 21.28515625 8.75390625 C20.12435547 8.72103516 18.96355469 8.68816406 17.76757812 8.65429688 C15.30152368 8.593198 12.83537224 8.53589385 10.36914062 8.48242188 C9.20705078 8.44826172 8.04496094 8.41410156 6.84765625 8.37890625 C5.77523682 8.3538501 4.70281738 8.32879395 3.59790039 8.30297852 C1 8 1 8 -1 6 C-0.625 2.875 -0.625 2.875 0 0 Z " fill="#4B8EDC" transform="translate(147,225)"/>
<path d="M0 0 C2.87958609 2.46821665 3.65962465 5.94801969 4.75 9.5 C5.06453125 8.94570312 5.3790625 8.39140625 5.703125 7.8203125 C6.13109375 7.09585938 6.5590625 6.37140625 7 5.625 C7.41765625 4.90570313 7.8353125 4.18640625 8.265625 3.4453125 C9.94211398 1.24822957 11.17992831 0.4612865 13.75 -0.5 C16.5488536 -0.67492835 18.96583058 -0.7023663 21.6875 0 C24.53011831 0.7748667 24.53011831 0.7748667 30.75 0.5 C30.75 8.42 30.75 16.34 30.75 24.5 C27.718125 24.603125 24.68625 24.70625 21.5625 24.8125 C20.61608643 24.85802002 19.66967285 24.90354004 18.69458008 24.95043945 C14.20878384 25.02424249 12.34513607 24.96711704 8.69921875 22.10546875 C6.75 19.5 6.75 19.5 5.75 17.5 C5.09 19.81 4.43 22.12 3.75 24.5 C1.44 24.5 -0.87 24.5 -3.25 24.5 C-3.58 18.89 -3.91 13.28 -4.25 7.5 C-6.23 7.83 -8.21 8.16 -10.25 8.5 C-10.31058594 9.57121094 -10.37117188 10.64242188 -10.43359375 11.74609375 C-10.51798537 13.14324391 -10.60263406 14.54037857 -10.6875 15.9375 C-10.72681641 16.64455078 -10.76613281 17.35160156 -10.80664062 18.08007812 C-11.13671875 23.38671875 -11.13671875 23.38671875 -12.25 24.5 C-14.23 24.5 -16.21 24.5 -18.25 24.5 C-18.25 16.58 -18.25 8.66 -18.25 0.5 C-4.58333333 -1.01851852 -4.58333333 -1.01851852 0 0 Z M13.75 7.5 C12.55011955 12.78199593 12.55011955 12.78199593 14.75 17.5 C17.82921132 17.75660094 19.96136993 17.89431504 22.75 16.5 C23.64966936 13.72601946 23.92053714 12.05812156 23.0625 9.25 C21.8801782 7.372498 21.8801782 7.372498 19.875 6.6875 C17.57969717 6.48497328 15.93266076 6.79843047 13.75 7.5 Z " fill="#DEDEE0" transform="translate(376.25,246.5)"/>
<path d="M0 0 C2.81973517 4.22960276 3.4366856 7.93999223 3 13 C1.38160074 16.92969118 -0.67211954 20.45082574 -3 24 C-3.66 24 -4.32 24 -5 24 C-5 24.66 -5 25.32 -5 26 C-10.35220646 30.54241635 -16.27449305 33.21253257 -23 35 C-23.66386719 35.18433594 -24.32773438 35.36867188 -25.01171875 35.55859375 C-36.37084915 38.08036533 -48.3076839 33.71917917 -58 28 C-61.78102241 25.42568687 -63.86593626 23.04348919 -66 19 C-65.01 18.67 -64.02 18.34 -63 18 C-62.01 18.66 -61.02 19.32 -60 20 C-60 20.99 -60 21.98 -60 23 C-59.34 23 -58.68 23 -58 23 C-57.34 21.02 -56.68 19.04 -56 17 C-56.33 16.67 -56.66 16.34 -57 16 C-57.07179964 14.48071962 -57.08392007 12.95832518 -57.0625 11.4375 C-57.05347656 10.61121094 -57.04445313 9.78492188 -57.03515625 8.93359375 C-57.02355469 8.29550781 -57.01195313 7.65742188 -57 7 C-55.68 7.33 -54.36 7.66 -53 8 C-53 8.86625 -53 9.7325 -53 10.625 C-51.5213263 15.61552373 -48.17340857 17.18593022 -44 20 C-43.154375 20.7425 -42.30875 21.485 -41.4375 22.25 C-35.28881606 26.66443975 -29.32424143 26.25788633 -22.02734375 25.5390625 C-18.1642083 24.85117516 -15.91119047 23.62007143 -13 21 C-12.113125 20.2575 -11.22625 19.515 -10.3125 18.75 C-7.40796295 15.29595595 -6.37819949 12.2796721 -5 8 C-4.34 8 -3.68 8 -3 8 C-3.061875 7.236875 -3.12375 6.47375 -3.1875 5.6875 C-3 3 -3 3 -1.5 1.1875 C-1.005 0.795625 -0.51 0.40375 0 0 Z " fill="#9852C5" transform="translate(160,265)"/>
<path d="M0 0 C0.99 0.33 1.98 0.66 3 1 C4.39439664 1.06665376 5.79169875 1.08538199 7.1875 1.0625 C8.445625 1.041875 9.70375 1.02125 11 1 C11.08725659 5.2290362 11.1404789 9.45784012 11.1875 13.6875 C11.21263672 14.88568359 11.23777344 16.08386719 11.26367188 17.31835938 C11.27333984 18.47529297 11.28300781 19.63222656 11.29296875 20.82421875 C11.3086792 21.88729248 11.32438965 22.95036621 11.34057617 24.0456543 C10.94768927 27.45377212 10.05119659 29.270944 8 32 C3.14535825 34.91278505 -0.33906006 35.37491223 -5.91015625 34.52734375 C-8.64093961 33.83826758 -10.74655774 32.67190878 -13 31 C-12.6875 28.625 -12.6875 28.625 -12 26 C-11.01 25.34 -10.02 24.68 -9 24 C-9.804375 23.360625 -10.60875 22.72125 -11.4375 22.0625 C-14.75567177 18.09688008 -15.15716523 15.07551256 -15 10 C-13.99242436 5.46590964 -11.74534358 3.62174051 -8 1 C-5.2540274 -0.3729863 -3.0410953 -0.12412634 0 0 Z M-7 10 C-6.90304884 14.34194936 -6.90304884 14.34194936 -5 18 C-2.04182893 18.25005386 -2.04182893 18.25005386 1 18 C3.31563087 16.11499729 3.31563087 16.11499729 3.25 13 C3.31563087 9.88500271 3.31563087 9.88500271 1 8 C-3.50480277 7.4895042 -3.50480277 7.4895042 -7 10 Z M-3.0625 24.5 C-4.44115234 24.63921875 -4.44115234 24.63921875 -5.84765625 24.78125 C-6.91306641 24.88953125 -6.91306641 24.88953125 -8 25 C-6.69589688 26.5547193 -6.69589688 26.5547193 -5 28 C-1.87450983 28.25048636 -1.87450983 28.25048636 1 28 C1.66 26.68 2.32 25.36 3 24 C0.9747164 24 -1.04997401 24.2961999 -3.0625 24.5 Z " fill="#DDDCDD" transform="translate(293,246)"/>
<path d="M0 0 C2.75776348 1.8853074 4.66164572 3.92112586 6 7 C5.67 7.99 5.34 8.98 5 10 C2.1875 10.6875 2.1875 10.6875 -1 11 C-2.5625 9.5625 -2.5625 9.5625 -4 8 C-6.62570704 7.74930087 -6.62570704 7.74930087 -9 8 C-9 8.99 -9 9.98 -9 11 C-8.16855469 11.25394531 -7.33710938 11.50789062 -6.48046875 11.76953125 C-5.39378906 12.11371094 -4.30710937 12.45789063 -3.1875 12.8125 C-1.56908203 13.31716797 -1.56908203 13.31716797 0.08203125 13.83203125 C2.85308576 14.94119497 4.21874119 15.65874678 6 18 C7.18401669 21.72119532 7.03117368 23.8686252 6.125 27.6875 C3.56185365 31.68299285 1.81649975 32.45989211 -2.65625 33.62890625 C-7.44165137 34.3865948 -10.71550692 33.79924014 -14.8125 31.25 C-17.09308781 28.90425254 -18.05142962 27.10441214 -19 24 C-15.91190305 22.23537317 -14.76687864 22 -11 22 C-10.34 22.99 -9.68 23.98 -9 25 C-5.91634129 25.2502157 -5.91634129 25.2502157 -3 25 C-3 24.01 -3 23.02 -3 22 C-3.61488281 21.79503906 -4.22976563 21.59007812 -4.86328125 21.37890625 C-15 18 -15 18 -16.75 15.4375 C-18.28437687 11.21796362 -18.42175422 8.2562069 -17 4 C-13.03521774 -1.46866519 -6.14453526 -1.25871881 0 0 Z " fill="#DDDDDD" transform="translate(349,238)"/>
<path d="M0 0 C2.4375 1 2.4375 1 4 2 C4 2.66 4 3.32 4 4 C4.66 4 5.32 4 6 4 C8.35119399 7.52679099 8.21443452 9.02879485 8.125 13.1875 C8.10695313 14.27417969 8.08890625 15.36085938 8.0703125 16.48046875 C8.04710937 17.31191406 8.02390625 18.14335937 8 19 C7.34 19 6.68 19 6 19 C5.71125 19.61875 5.4225 20.2375 5.125 20.875 C4 23 4 23 2 25 C-0.3828125 25.1953125 -0.3828125 25.1953125 -3.125 25.125 C-4.49011719 25.09792969 -4.49011719 25.09792969 -5.8828125 25.0703125 C-6.58148438 25.04710937 -7.28015625 25.02390625 -8 25 C-8.33 27.97 -8.66 30.94 -9 34 C-11.64 34 -14.28 34 -17 34 C-17 23.11 -17 12.22 -17 1 C-14.36 1 -11.72 1 -9 1 C-5.97562661 -0.5121867 -3.33758466 -0.17263369 0 0 Z M-9 9 C-9 11.64 -9 14.28 -9 17 C-4.38990512 18.17008745 -4.38990512 18.17008745 -0.0625 16.875 C1.37604008 14.33639987 1.50262362 12.87213496 1 10 C-2.76677063 6.35878839 -4.58751244 6.6466733 -9 9 Z " fill="#C5C5C7" transform="translate(427,246)"/>
<path d="M0 0 C3.15689734 1.60714774 5.19415756 2.97438234 7.375 5.75 C8 8 8 8 8 16 C2.72 16 -2.56 16 -8 16 C-8 16.66 -8 17.32 -8 18 C-6.75283203 17.87431641 -6.75283203 17.87431641 -5.48046875 17.74609375 C-4.39378906 17.64425781 -3.30710937 17.54242188 -2.1875 17.4375 C-0.56908203 17.28087891 -0.56908203 17.28087891 1.08203125 17.12109375 C4 17 4 17 7 18 C7 18.99 7 19.98 7 21 C6.34 21 5.68 21 5 21 C5 21.66 5 22.32 5 23 C1.45594712 25.36270192 -0.77169086 25.71333497 -5 26 C-7.88487812 25.23795672 -10.34134535 24.32932733 -13 23 C-13 22.34 -13 21.68 -13 21 C-13.66 21 -14.32 21 -15 21 C-16.8042958 15.39240442 -17.55712937 11.20020267 -15.03515625 5.73046875 C-11.4292669 -0.29748967 -6.52759635 -1.14922471 0 0 Z M-6 7 C-6.66 7.66 -7.32 8.32 -8 9 C-5.36 9 -2.72 9 0 9 C-0.66 8.34 -1.32 7.68 -2 7 C-3.32 7 -4.64 7 -6 7 Z " fill="#EBEBEB" transform="translate(322,246)"/>
<path d="M0 0 C4.0384057 -0.0744389 8.07654293 -0.12873729 12.11547852 -0.16479492 C13.48794517 -0.17983432 14.86036414 -0.20027133 16.23266602 -0.22631836 C18.21088656 -0.26291221 20.18946514 -0.27816698 22.16796875 -0.29296875 C23.35672607 -0.3086792 24.5454834 -0.32438965 25.77026367 -0.34057617 C30.28948538 0.13597642 32.8335994 1.8335994 36 5 C37.13898493 8.25131749 37.12096546 11.3558891 37.11352539 14.77832031 C37.11344986 15.9392218 37.11337433 17.10012329 37.11329651 18.29620361 C37.10813522 19.54423767 37.10297394 20.79227173 37.09765625 22.078125 C37.0962413 23.35983582 37.09482635 24.64154663 37.09336853 25.96209717 C37.08955901 29.3618364 37.07974214 32.7615326 37.06866455 36.16125488 C37.05841674 39.633539 37.0538637 43.1058301 37.04882812 46.578125 C37.03811841 53.38543429 37.02106084 60.19271508 37 67 C36.67 67 36.34 67 36 67 C35.67 53.8 35.34 40.6 35 27 C34.67 27 34.34 27 34 27 C33.67 22.71 33.34 18.42 33 14 C31.78902758 16.42194485 31.80490787 18.10977787 31.70288086 20.81689453 C31.66291489 21.81778107 31.62294891 22.8186676 31.58177185 23.84988403 C31.52389244 25.47493362 31.52389244 25.47493362 31.46484375 27.1328125 C31.42186661 28.23978485 31.37888947 29.3467572 31.33460999 30.48727417 C31.19794129 34.03303378 31.06765278 37.5789958 30.9375 41.125 C30.84612233 43.52475558 30.75433082 45.92449545 30.66210938 48.32421875 C30.4365988 54.21597164 30.21633008 60.10790328 30 66 C29.67 66 29.34 66 29 66 C28.98969254 65.30064835 28.97938507 64.60129669 28.96876526 63.88075256 C28.87094968 57.30286337 28.76845843 50.7250658 28.66066074 44.14733219 C28.60540198 40.76532878 28.55197744 37.38331676 28.50268555 34.0012207 C28.44599054 30.11660573 28.38142415 26.23214122 28.31640625 22.34765625 C28.29969376 21.12788589 28.28298126 19.90811554 28.26576233 18.65138245 C28.24581711 17.53029587 28.22587189 16.40920929 28.20532227 15.25415039 C28.18977798 14.26153702 28.1742337 13.26892365 28.15821838 12.24623108 C28.24881556 10.03025703 28.24881556 10.03025703 27 9 C25.09798345 8.86625123 23.19139413 8.79648372 21.28515625 8.75390625 C20.12435547 8.72103516 18.96355469 8.68816406 17.76757812 8.65429688 C15.30152368 8.593198 12.83537224 8.53589385 10.36914062 8.48242188 C9.20705078 8.44826172 8.04496094 8.41410156 6.84765625 8.37890625 C5.77523682 8.3538501 4.70281738 8.32879395 3.59790039 8.30297852 C1 8 1 8 -1 6 C-0.625 2.875 -0.625 2.875 0 0 Z " fill="#3D79AD" transform="translate(147,225)"/>
<path d="M0 0 C7.26 0 14.52 0 22 0 C22 2.31 22 4.62 22 7 C17.38 7 12.76 7 8 7 C8 8.65 8 10.3 8 12 C8.78246094 12.06058594 9.56492188 12.12117187 10.37109375 12.18359375 C11.38300781 12.26738281 12.39492187 12.35117188 13.4375 12.4375 C14.95150391 12.55931641 14.95150391 12.55931641 16.49609375 12.68359375 C19 13 19 13 20 14 C20.04080783 15.99958364 20.04254356 18.00045254 20 20 C15.9472484 20.98248524 12.16138263 21.08159574 8 21 C8.020625 22.051875 8.04125 23.10375 8.0625 24.1875 C8.01103198 27.32704904 7.73482813 29.96883396 7 33 C4.69 33 2.38 33 0 33 C0 22.11 0 11.22 0 0 Z " fill="#BAB9BC" transform="translate(215,238)"/>
<path d="M0 0 C3.93633038 2.65473445 5.20056154 5.21255935 6.5625 9.6875 C6.7686706 14.84176492 4.91060593 18.32183964 1.6875 22.25 C-2.89925649 24.63893567 -7.2490233 24.57392507 -12.3125 23.8125 C-16.01202172 21.69848759 -17.69452548 19.68433423 -19.3125 15.8125 C-19.578125 13.59375 -19.578125 13.59375 -19.5625 11.3125 C-19.56765625 10.5596875 -19.5728125 9.806875 -19.578125 9.03125 C-19.28500404 6.5828279 -18.53066769 4.93945946 -17.3125 2.8125 C-16.6525 2.8125 -15.9925 2.8125 -15.3125 2.8125 C-15.3125 2.1525 -15.3125 1.4925 -15.3125 0.8125 C-10.48935793 -2.40292805 -5.18612341 -1.85917632 0 0 Z M-9 6.375 C-11.50729372 7.61504917 -11.50729372 7.61504917 -12.25 10.1875 C-12.31812203 13.04862509 -11.82001963 14.41820412 -10.3125 16.8125 C-7.43836875 17.14647787 -7.43836875 17.14647787 -4.3125 16.8125 C-2.2339392 15.23554368 -2.2339392 15.23554368 -1.3125 12.8125 C-1.22444854 10.1691226 -1.22444854 10.1691226 -2.3125 7.8125 C-4.8009416 5.76842297 -5.84194471 5.71401168 -9 6.375 Z " fill="#D7D6D8" transform="translate(255.3125,247.1875)"/>
<path d="M0 0 C2.81973517 4.22960276 3.4366856 7.93999223 3 13 C1.38160074 16.92969118 -0.67211954 20.45082574 -3 24 C-3.66 24 -4.32 24 -5 24 C-5 24.66 -5 25.32 -5 26 C-6.828125 27.4375 -6.828125 27.4375 -9.25 29 C-10.03890625 29.515625 -10.8278125 30.03125 -11.640625 30.5625 C-17.43669986 34.09388336 -17.43669986 34.09388336 -20.25 33.625 C-20.8275 33.41875 -21.405 33.2125 -22 33 C-21.195625 32.71125 -20.39125 32.4225 -19.5625 32.125 C-16.8673532 31.26737432 -16.8673532 31.26737432 -16 29 C-21.28 28.67 -26.56 28.34 -32 28 C-32 27.67 -32 27.34 -32 27 C-31.13117188 26.90203125 -30.26234375 26.8040625 -29.3671875 26.703125 C-20.49159697 25.61678533 -20.49159697 25.61678533 -13 21 C-11.6696875 19.88625 -11.6696875 19.88625 -10.3125 18.75 C-7.40796295 15.29595595 -6.37819949 12.2796721 -5 8 C-4.34 8 -3.68 8 -3 8 C-3.061875 7.236875 -3.12375 6.47375 -3.1875 5.6875 C-3 3 -3 3 -1.5 1.1875 C-1.005 0.795625 -0.51 0.40375 0 0 Z " fill="#7C4AAE" transform="translate(160,265)"/>
<path d="M0 0 C0.33 -0.33 0.66 -0.66 1 -1 C2.66617115 -1.04063832 4.33388095 -1.042721 6 -1 C6 1.64 6 4.28 6 7 C4.02 7.66 2.04 8.32 0 9 C-0.06058594 9.99902344 -0.12117188 10.99804688 -0.18359375 12.02734375 C-0.26738281 13.31769531 -0.35117187 14.60804688 -0.4375 15.9375 C-0.51871094 17.22527344 -0.59992188 18.51304687 -0.68359375 19.83984375 C-1 23 -1 23 -2 24 C-4.31 24 -6.62 24 -9 24 C-9 16.08 -9 8.16 -9 0 C-3.70588235 -1.05882353 -3.70588235 -1.05882353 0 0 Z " fill="#929195" transform="translate(272,247)"/>
<path d="M0 0 C0.99 0.33 1.98 0.66 3 1 C3.8125 3.6875 3.8125 3.6875 4 7 C1.84614331 9.61955544 0.04053406 11.47973297 -3 13 C-4.81341842 13.08471364 -6.62994161 13.10721083 -8.4453125 13.09765625 C-10.05986328 13.09282227 -10.05986328 13.09282227 -11.70703125 13.08789062 C-12.83496094 13.07951172 -13.96289062 13.07113281 -15.125 13.0625 C-16.26066406 13.05798828 -17.39632812 13.05347656 -18.56640625 13.04882812 C-21.37765638 13.03701615 -24.1888023 13.02054507 -27 13 C-27 9 -27 9 -25.0390625 6.79296875 C-21.05753123 4.44396765 -17.91657526 4.37062596 -13.375 4.3125 C-7.60561254 4.23189421 -7.60561254 4.23189421 -2 3 C-1.34 2.01 -0.68 1.02 0 0 Z " fill="#7B64C9" transform="translate(179,288)"/>
<path d="M0 0 C3.3 0 6.6 0 10 0 C9.34 1.32 8.68 2.64 8 4 C7.83315383 7.17953969 7.83315383 7.17953969 8 10.5625 C8.22174381 16.66738428 8.22174381 16.66738428 6 20 C5.75780685 22.97449608 5.75780685 22.97449608 5.875 26.1875 C5.90207031 27.81751953 5.90207031 27.81751953 5.9296875 29.48046875 C5.95289063 30.31191406 5.97609375 31.14335937 6 32 C4.02 32 2.04 32 0 32 C0 21.44 0 10.88 0 0 Z " fill="#F4F3F5" transform="translate(411,248)"/>
<path d="M0 0 C0.33 0 0.66 0 1 0 C1.53541343 10.88673974 -1.76266204 20.08419898 -6 30 C-6.33 28.68 -6.66 27.36 -7 26 C-7.66 26 -8.32 26 -9 26 C-9.33 26.99 -9.66 27.98 -10 29 C-10.33 28.34 -10.66 27.68 -11 27 C-11.99 27 -12.98 27 -14 27 C-13.505 22.545 -13.505 22.545 -13 18 C-14.58689029 19.0781163 -16.16936082 20.16273952 -17.75 21.25 C-18.63171875 21.85328125 -19.5134375 22.4565625 -20.421875 23.078125 C-22.85433494 24.89141332 -24.91728069 26.80049269 -27 29 C-27.66 28.67 -28.32 28.34 -29 28 C-29 27.34 -29 26.68 -29 26 C-28.34 26 -27.68 26 -27 26 C-27.33 24.02 -27.66 22.04 -28 20 C-26.68 19.34 -25.36 18.68 -24 18 C-24.33 18.99 -24.66 19.98 -25 21 C-24.01 20.67 -23.02 20.34 -22 20 C-21.566875 19.01 -21.566875 19.01 -21.125 18 C-20 16 -20 16 -17.75 15.3125 C-16.8425 15.209375 -15.935 15.10625 -15 15 C-13.906875 14.814375 -12.81375 14.62875 -11.6875 14.4375 C-10.800625 14.293125 -9.91375 14.14875 -9 14 C-9 15.32 -9 16.64 -9 18 C-8.01 17.67 -7.02 17.34 -6 17 C-6 17.66 -6 18.32 -6 19 C-5.34 19 -4.68 19 -4 19 C-3.95101562 18.37351563 -3.90203125 17.74703125 -3.8515625 17.1015625 C-3.77679688 16.28429687 -3.70203125 15.46703125 -3.625 14.625 C-3.55539063 13.81289062 -3.48578125 13.00078125 -3.4140625 12.1640625 C-3 10 -3 10 -1 8 C-0.54188325 6.02764667 -0.54188325 6.02764667 -0.375 3.875 C-0.25125 2.59625 -0.1275 1.3175 0 0 Z " fill="#4A7BD5" transform="translate(141,224)"/>
<path d="M0 0 C6.6 0 13.2 0 20 0 C20 1.98 20 3.96 20 6 C15.71 6 11.42 6 7 6 C7 8.31 7 10.62 7 13 C9.97 13 12.94 13 16 13 C16 13.33 16 13.66 16 14 C5.7012987 15.35064935 5.7012987 15.35064935 3 14 C3.33 14.99 3.66 15.98 4 17 C3.34 17.66 2.68 18.32 2 19 C1.34 18.67 0.68 18.34 0 18 C0 12.06 0 6.12 0 0 Z " fill="#FBFAFB" transform="translate(216,239)"/>
<path d="M0 0 C0.33 0 0.66 0 1 0 C1.29130183 4.95213111 1.30895436 8.15734332 -2 12 C-6.85464175 14.91278505 -10.33906006 15.37491223 -15.91015625 14.52734375 C-18.64093961 13.83826758 -20.74655774 12.67190878 -23 11 C-22.6875 8.625 -22.6875 8.625 -22 6 C-17.87107202 3.24738134 -15.96880496 2.91308247 -10.97265625 3.0625 C-8.7852789 3.08733016 -8.7852789 3.08733016 -6 2 C-6 2.66 -6 3.32 -6 4 C-5.34 4 -4.68 4 -4 4 C-4 3.34 -4 2.68 -4 2 C-1 3 -1 3 0 5 C0 3.35 0 1.7 0 0 Z M-13.0625 4.5 C-14.44115234 4.63921875 -14.44115234 4.63921875 -15.84765625 4.78125 C-16.91306641 4.88953125 -16.91306641 4.88953125 -18 5 C-16.69589688 6.5547193 -16.69589688 6.5547193 -15 8 C-11.87450983 8.25048636 -11.87450983 8.25048636 -9 8 C-8.34 6.68 -7.68 5.36 -7 4 C-9.0252836 4 -11.04997401 4.2961999 -13.0625 4.5 Z " fill="#D1D1D3" transform="translate(303,266)"/>
<path d="M0 0 C0 0.33 0 0.66 0 1 C-1.65 1 -3.3 1 -5 1 C-5.33 2.65 -5.66 4.3 -6 6 C-5.01 6 -4.02 6 -3 6 C-2.67 5.34 -2.34 4.68 -2 4 C-1.34 5.32 -0.68 6.64 0 8 C-2.31 8.33 -4.62 8.66 -7 9 C-8.00265014 11.6737337 -8.25978404 13.3824225 -7.140625 16.04296875 C-6.39066886 17.45298902 -5.6150759 18.84972139 -4.8125 20.23046875 C-4.4103125 21.10638672 -4.4103125 21.10638672 -4 22 C-4.33 22.66 -4.66 23.32 -5 24 C-9.32031241 23.83383414 -11.36323258 23.65309479 -14.4375 20.5 C-16.35575674 16.2031049 -16.72572273 12.64125003 -16 8 C-14.9765625 5.7265625 -14.9765625 5.7265625 -14 4 C-13.34 4 -12.68 4 -12 4 C-12 3.34 -12 2.68 -12 2 C-8.09971775 -0.60018816 -4.52565431 -0.15085514 0 0 Z " fill="#D9D9DA" transform="translate(252,246)"/>
<path d="M0 0 C1.98 0 3.96 0 6 0 C6 0.66 6 1.32 6 2 C7.98 1.34 9.96 0.68 12 0 C12.33 1.98 12.66 3.96 13 6 C11.35 6 9.7 6 8 6 C7.93941406 7.21558594 7.87882812 8.43117187 7.81640625 9.68359375 C7.73201668 11.26824228 7.6473679 12.85287702 7.5625 14.4375 C7.50352539 15.64116211 7.50352539 15.64116211 7.44335938 16.86914062 C7.11328125 22.88671875 7.11328125 22.88671875 6 24 C4.02 24 2.04 24 0 24 C0 16.08 0 8.16 0 0 Z " fill="#EAEAEC" transform="translate(358,247)"/>
<path d="M0 0 C2.475 0.99 2.475 0.99 5 2 C5 2.99 5 3.98 5 5 C5.66 5 6.32 5 7 5 C7.66 3.68 8.32 2.36 9 1 C9.99 1 10.98 1 12 1 C12.33 1.99 12.66 2.98 13 4 C13.66 4.33 14.32 4.66 15 5 C15 5.66 15 6.32 15 7 C15.66 7 16.32 7 17 7 C17 7.66 17 8.32 17 9 C17.66 9 18.32 9 19 9 C19 9.66 19 10.32 19 11 C19.9590625 11.1546875 19.9590625 11.1546875 20.9375 11.3125 C25.06477326 12.23903073 29.00642949 13.61660629 33 15 C33 15.33 33 15.66 33 16 C34.65 16.33 36.3 16.66 38 17 C38 17.33 38 17.66 38 18 C25.47491456 18.62625427 14.39341758 15.03381622 4.0625 8 C1.84706131 5.85169581 0.43632239 3.72145294 -1 1 C-0.67 0.67 -0.34 0.34 0 0 Z " fill="#843AB6" transform="translate(95,283)"/>
<path d="M0 0 C0.33 0 0.66 0 1 0 C1 2.64 1 5.28 1 8 C-4.28 8 -9.56 8 -15 8 C-15 8.66 -15 9.32 -15 10 C-14.16855469 9.91621094 -13.33710938 9.83242188 -12.48046875 9.74609375 C-11.39378906 9.64425781 -10.30710937 9.54242188 -9.1875 9.4375 C-8.10855469 9.33308594 -7.02960938 9.22867187 -5.91796875 9.12109375 C-3 9 -3 9 0 10 C0 10.99 0 11.98 0 13 C-0.66 13 -1.32 13 -2 13 C-2 13.66 -2 14.32 -2 15 C-5.54405288 17.36270192 -7.77169086 17.71333497 -12 18 C-14.88487812 17.23795672 -17.34134535 16.32932733 -20 15 C-20 14.34 -20 13.68 -20 13 C-20.66 13 -21.32 13 -22 13 C-22.33 11.35 -22.66 9.7 -23 8 C-22.34 8 -21.68 8 -21 8 C-20.67 8.66 -20.34 9.32 -20 10 C-19.7834375 9.071875 -19.7834375 9.071875 -19.5625 8.125 C-19 6 -19 6 -18 4 C-17.23429687 4.47566406 -17.23429687 4.47566406 -16.453125 4.9609375 C-13.19785341 6.33976273 -10.27156868 6.4293573 -6.75 6.625 C-5.48671875 6.69976562 -4.2234375 6.77453125 -2.921875 6.8515625 C-1.95765625 6.90054687 -0.9934375 6.94953125 0 7 C0 4.69 0 2.38 0 0 Z " fill="#BCBBBD" transform="translate(329,254)"/>
<path d="M0 0 C1.1700097 3.91736581 0.69584017 6.97959015 0 11 C-0.66 11 -1.32 11 -2 11 C-1.39816251 13.02045442 -0.72693904 15.02111039 0 17 C0.66 17.33 1.32 17.66 2 18 C1.67 19.98 1.34 21.96 1 24 C2.98 25.32 4.96 26.64 7 28 C7 26.68 7 25.36 7 24 C6.34 24 5.68 24 5 24 C6.39316877 21.21366246 8.15980516 21.06507306 11 20 C11.33 19.67 11.66 19.34 12 19 C13.99958364 18.95919217 16.00045254 18.95745644 18 19 C18 21.31 18 23.62 18 26 C17.34 24.68 16.68 23.36 16 22 C15.63648438 22.49371094 15.27296875 22.98742187 14.8984375 23.49609375 C12.4040936 26.67478329 10.79540422 28.70781069 6.9375 30.125 C3.30848621 29.97057388 1.78414869 29.33266511 -1 27 C-4.77356034 21.79508919 -4.79017365 16.17998969 -4 10 C-2.93100551 6.524611 -1.58811544 3.2683983 0 0 Z " fill="#6462BB" transform="translate(128,242)"/>
<path d="M0 0 C4.60077206 3.61489233 6.56122118 8.46969392 8 14 C8.30328796 18.02804328 8.24924405 21.9705545 8 26 C7.34 26 6.68 26 6 26 C5.34 23.69 4.68 21.38 4 19 C3.01 19.33 2.02 19.66 1 20 C1 21.65 1 23.3 1 25 C0.67 25 0.34 25 0 25 C-0.09796875 24.2265625 -0.1959375 23.453125 -0.296875 22.65625 C-1.25727289 15.96658194 -2.63560093 10.86056613 -6 5 C-6.33 4.34 -6.66 3.68 -7 3 C-2.25 3.875 -2.25 3.875 0 5 C0 3.35 0 1.7 0 0 Z " fill="#546CB9" transform="translate(156,248)"/>
<path d="M0 0 C0 7.26 0 14.52 0 22 C-1.98 22.33 -3.96 22.66 -6 23 C-6.66 22.34 -7.32 21.68 -8 21 C-7.67 20.01 -7.34 19.02 -7 18 C-6.62895744 12.24884031 -6.98580028 9.93232681 -10 5 C-9.375 2.75 -9.375 2.75 -8 1 C-5 0 -5 0 0 0 Z " fill="#F2F2F2" transform="translate(406,248)"/>
<path d="M0 0 C2.81973517 4.22960276 3.4366856 7.93999223 3 13 C1.38160074 16.92969118 -0.67211954 20.45082574 -3 24 C-3.66 24 -4.32 24 -5 24 C-5 24.66 -5 25.32 -5 26 C-5.66 26 -6.32 26 -7 26 C-7 24.68 -7 23.36 -7 22 C-6.34 22 -5.68 22 -5 22 C-5 20.02 -5 18.04 -5 16 C-5.99 16 -6.98 16 -8 16 C-7.01 13.36 -6.02 10.72 -5 8 C-4.34 8 -3.68 8 -3 8 C-3.061875 7.236875 -3.12375 6.47375 -3.1875 5.6875 C-3 3 -3 3 -1.5 1.1875 C-1.005 0.795625 -0.51 0.40375 0 0 Z " fill="#6B54B0" transform="translate(160,265)"/>
<path d="M0 0 C3.00617269 3.00617269 2.59585316 5.82381598 3 10 C3.66 6.7 4.32 3.4 5 0 C5.33 0 5.66 0 6 0 C6.04939662 3.95096978 6.08571755 7.9018203 6.10986328 11.85302734 C6.12488107 13.8591136 6.15028981 15.86511324 6.17578125 17.87109375 C6.18222656 19.12792969 6.18867188 20.38476562 6.1953125 21.6796875 C6.20578613 22.84226074 6.21625977 24.00483398 6.22705078 25.20263672 C6 28 6 28 4 30 C4 28.35 4 26.7 4 25 C3.34 25 2.68 25 2 25 C1.34 25.99 0.68 26.98 0 28 C0 18.76 0 9.52 0 0 Z " fill="#7376D1" transform="translate(177,264)"/>
<path d="M0 0 C0.66 0 1.32 0 2 0 C2.103125 0.598125 2.20625 1.19625 2.3125 1.8125 C2.78696961 4.07584163 2.78696961 4.07584163 4.53125 5.125 C6.89105871 8.13752175 6.31199122 11.53256559 6.1875 15.1875 C6.17396484 15.93708984 6.16042969 16.68667969 6.14648438 17.45898438 C6.11118539 19.30629767 6.05737917 21.15324066 6 23 C4.33388095 23.042721 2.66617115 23.04063832 1 23 C0 22 0 22 -0.11352539 19.86694336 C-0.10828857 18.95050049 -0.10305176 18.03405762 -0.09765625 17.08984375 C-0.09443359 16.10048828 -0.09121094 15.11113281 -0.08789062 14.09179688 C-0.07951172 13.05087891 -0.07113281 12.00996094 -0.0625 10.9375 C-0.05798828 9.89271484 -0.05347656 8.84792969 -0.04882812 7.77148438 C-0.03699913 5.1809334 -0.02051689 2.59049441 0 0 Z " fill="#FBFAFB" transform="translate(264,248)"/>
<path d="M0 0 C0.33 0 0.66 0 1 0 C1.02698189 1.62490954 1.04638757 3.24994633 1.0625 4.875 C1.07410156 5.77992188 1.08570312 6.68484375 1.09765625 7.6171875 C1 10 1 10 0 12 C0.25108421 14.73018005 0.56035309 17.4123533 0.9375 20.125 C1.03740234 20.87910156 1.13730469 21.63320313 1.24023438 22.41015625 C1.48798404 24.27417753 1.74328057 26.13719288 2 28 C3.32 28 4.64 28 6 28 C7.16063604 32.25566547 6.76173392 35.6835078 6 40 C-0.71537049 33.04479485 -2.35475445 24.57510165 -2.375 15.25 C-2.37661133 14.54133789 -2.37822266 13.83267578 -2.37988281 13.10253906 C-2.28127427 8.41972905 -1.45631154 4.45048807 0 0 Z " fill="#8946CB" transform="translate(88,244)"/>
<path d="M0 0 C0.66 0 1.32 0 2 0 C6.46066779 6.13341822 6.88152295 11.52261124 6 19 C4.67075969 22.50436082 3.6165916 24.3834084 1 27 C-1.625 26.625 -1.625 26.625 -4 26 C-3.21824485 21.15311808 -1.60155722 16.6233633 0 12 C0.33 12 0.66 12 1 12 C1 13.98 1 15.96 1 18 C1.99 18 2.98 18 4 18 C3.67 13.71 3.34 9.42 3 5 C2.01 4.67 1.02 4.34 0 4 C0 2.68 0 1.36 0 0 Z " fill="#6653B2" transform="translate(146,256)"/>
<path d="M0 0 C0 0.66 0 1.32 0 2 C-1.32 2 -2.64 2 -4 2 C-4 2.99 -4 3.98 -4 5 C-6.93774463 5.05390357 -9.87450232 5.0936255 -12.8125 5.125 C-13.64587891 5.14175781 -14.47925781 5.15851563 -15.33789062 5.17578125 C-16.14033203 5.18222656 -16.94277344 5.18867188 -17.76953125 5.1953125 C-18.87711792 5.21102295 -18.87711792 5.21102295 -20.00708008 5.22705078 C-22 5 -22 5 -25 3 C-23.06863574 0.3191511 -22.00229645 0.00037735 -18.671875 -0.546875 C-16.73054687 -0.64742188 -16.73054687 -0.64742188 -14.75 -0.75 C-13.46609375 -0.82734375 -12.1821875 -0.9046875 -10.859375 -0.984375 C-7.06673424 -0.99972982 -3.72409105 -0.63676168 0 0 Z " fill="#8665CF" transform="translate(180,295)"/>
<path d="M0 0 C5.51724138 2.75862069 5.51724138 2.75862069 6.875 6.25 C6.91625 6.8275 6.9575 7.405 7 8 C6.01 8.495 6.01 8.495 5 9 C5 8.34 5 7.68 5 7 C4.01 7 3.02 7 2 7 C2 8.32 2 9.64 2 11 C-1.3 10.67 -4.6 10.34 -8 10 C-8 9.67 -8 9.34 -8 9 C-6.02 8.67 -4.04 8.34 -2 8 C-3.32 7.67 -4.64 7.34 -6 7 C-6 5.68 -6 4.36 -6 3 C-5.01 2.67 -4.02 2.34 -3 2 C-5.20152247 1.49246656 -5.20152247 1.49246656 -8 2 C-10.53572282 3.79177109 -12.77174488 5.84238121 -15 8 C-14.41684026 5.10849963 -14.030207 4.03398287 -12 1.75 C-7.90983067 -0.63593211 -4.63059908 -0.81381355 0 0 Z " fill="#C4C4C4" transform="translate(322,246)"/>
<path d="M0 0 C1.32 0.33 2.64 0.66 4 1 C4 1.86625 4 2.7325 4 3.625 C5.29339027 7.99019216 7.26690306 9.05154004 10.921875 11.54296875 C13.62452863 13.4378744 15.7429561 15.60189086 18 18 C16.02 18 14.04 18 12 18 C11.67 17.01 11.34 16.02 11 15 C9.02 15.33 7.04 15.66 5 16 C4.67 14.68 4.34 13.36 4 12 C3.34 12 2.68 12 2 12 C-0.13586678 8.79619983 -0.23132175 7.98060033 -0.125 4.3125 C-0.10695313 3.50425781 -0.08890625 2.69601562 -0.0703125 1.86328125 C-0.04710938 1.24839844 -0.02390625 0.63351562 0 0 Z " fill="#9551D7" transform="translate(103,272)"/>
<path d="M0 0 C3.77068832 -0.086985 7.54111932 -0.14038579 11.3125 -0.1875 C12.38435547 -0.21263672 13.45621094 -0.23777344 14.56054688 -0.26367188 C15.58857422 -0.27333984 16.61660156 -0.28300781 17.67578125 -0.29296875 C19.0975769 -0.31653442 19.0975769 -0.31653442 20.5480957 -0.34057617 C23.39771408 0.05524357 24.24976105 0.77824719 26 3 C25 4 25 4 22.49975586 4.11352539 C21.41573486 4.10828857 20.33171387 4.10305176 19.21484375 4.09765625 C18.04501953 4.09443359 16.87519531 4.09121094 15.66992188 4.08789062 C13.82237305 4.07532227 13.82237305 4.07532227 11.9375 4.0625 C10.08415039 4.05573242 10.08415039 4.05573242 8.19335938 4.04882812 C5.12885883 4.03699608 2.06445279 4.02051173 -1 4 C-0.67 2.68 -0.34 1.36 0 0 Z " fill="#2A9FDC" transform="translate(151,227)"/>
<path d="M0 0 C2.2578125 -0.32421875 2.2578125 -0.32421875 5 0 C7.0546875 2.23046875 7.0546875 2.23046875 8.875 5.1875 C9.49117187 6.15042969 10.10734375 7.11335937 10.7421875 8.10546875 C12.14627502 11.33661425 12.0721178 12.70534587 11 16 C8.27060596 15.63884374 7.20179591 15.22448023 5.33203125 13.14453125 C2.4950859 8.79065883 0.27402084 5.34340647 0 0 Z " fill="#379BBB" transform="translate(94,192)"/>
<path d="M0 0 C1.65 0.33 3.3 0.66 5 1 C5 5.95 5 10.9 5 16 C3.02 16.99 3.02 16.99 1 18 C-1 16 -1 16 -1.23046875 12.8125 C-1.21628906 11.554375 -1.20210937 10.29625 -1.1875 9 C-1.18105469 7.741875 -1.17460937 6.48375 -1.16796875 5.1875 C-1 2 -1 2 0 0 Z " fill="#3F9FBE" transform="translate(134,176)"/>
<path d="M0 0 C1.7890625 0.13671875 1.7890625 0.13671875 4 1 C5.7734375 3.58203125 5.7734375 3.58203125 7.375 6.8125 C7.91898438 7.87082031 8.46296875 8.92914063 9.0234375 10.01953125 C10 13 10 13 9.1640625 15.38671875 C8.77992188 15.91910156 8.39578125 16.45148438 8 17 C4.20470332 15.54527172 2.97304097 13.78555385 1.1875 10.1875 C0.74792969 9.33542969 0.30835938 8.48335938 -0.14453125 7.60546875 C-1.1248128 4.61986238 -0.87179562 2.97908073 0 0 Z " fill="#874AB7" transform="translate(155,307)"/>
<path d="M0 0 C3.69230769 0.69230769 3.69230769 0.69230769 5 2 C5.07271741 4.35313555 5.08370868 6.70833668 5.0625 9.0625 C5.05347656 10.35285156 5.04445312 11.64320313 5.03515625 12.97265625 C5.02355469 13.97167969 5.01195312 14.97070312 5 16 C3.34385343 16.38218767 1.67542976 16.71395102 0 17 C-1.75559942 15.24440058 -1.13221919 12.96417558 -1.13671875 10.62890625 C-1.13285156 9.92636719 -1.12898437 9.22382813 -1.125 8.5 C-1.12886719 7.79746094 -1.13273438 7.09492188 -1.13671875 6.37109375 C-1.12661378 1.12661378 -1.12661378 1.12661378 0 0 Z " fill="#6E4291" transform="translate(135,310)"/>
<path d="M0 0 C1.65 0.33 3.3 0.66 5 1 C4.52412884 7.02770138 1.80277043 11.76678289 -1 17 C-2.32 16.67 -3.64 16.34 -5 16 C-4.49228528 10.03435204 -2.61407872 5.36190101 0 0 Z " fill="#4882C0" transform="translate(157,194)"/>
<path d="M0 0 C2.0625 0.4375 2.0625 0.4375 4 1 C3.55643705 7.20988129 2.08467498 11.60540561 -1 17 C-2.32 16.67 -3.64 16.34 -5 16 C-3.72093023 3.72093023 -3.72093023 3.72093023 0 0 Z " fill="#744296" transform="translate(116,307)"/>
<path d="M0 0 C0 1.32 0 2.64 0 4 C-2.09836004 5.03271642 -4.20390891 6.05083717 -6.3125 7.0625 C-7.48425781 7.63097656 -8.65601562 8.19945312 -9.86328125 8.78515625 C-13 10 -13 10 -16 9 C-16 7.68 -16 6.36 -16 5 C-14.28133783 3.9615789 -12.54955402 2.94485365 -10.8125 1.9375 C-9.84957031 1.36902344 -8.88664062 0.80054688 -7.89453125 0.21484375 C-4.67083459 -1.13815174 -3.27479579 -1.04769518 0 0 Z " fill="#7552AA" transform="translate(85,282)"/>
<path d="M0 0 C5.00028314 1.34153938 9.19067503 3.48370003 13 7 C13 7.66 13 8.32 13 9 C13.66 9 14.32 9 15 9 C14.67 9.66 14.34 10.32 14 11 C12.35 10.67 10.7 10.34 9 10 C9 8.68 9 7.36 9 6 C7.02 6.33 5.04 6.66 3 7 C3 12.61 3 18.22 3 24 C2.67 24 2.34 24 2 24 C1.80083984 22.38931641 1.80083984 22.38931641 1.59765625 20.74609375 C1.41930436 19.30989167 1.24091705 17.87369399 1.0625 16.4375 C0.97548828 15.73302734 0.88847656 15.02855469 0.79882812 14.30273438 C0.66831055 13.25375977 0.66831055 13.25375977 0.53515625 12.18359375 C0.4489502 11.48733887 0.36274414 10.79108398 0.27392578 10.07373047 C0.00716482 8.05424061 -0.30863733 6.04673297 -0.62890625 4.03515625 C-0.75136719 3.03355469 -0.87382813 2.03195313 -1 1 C-0.67 0.67 -0.34 0.34 0 0 Z " fill="#2F83A5" transform="translate(114,190)"/>
<path d="M0 0 C1.93166016 0.01740234 1.93166016 0.01740234 3.90234375 0.03515625 C5.19269531 0.04417969 6.48304688 0.05320312 7.8125 0.0625 C8.81152344 0.07410156 9.81054688 0.08570313 10.83984375 0.09765625 C11.22203142 1.75380282 11.55379477 3.42222649 11.83984375 5.09765625 C10.83984375 6.09765625 10.83984375 6.09765625 7.6796875 6.1953125 C5.74802734 6.17791016 5.74802734 6.17791016 3.77734375 6.16015625 C2.48699219 6.15113281 1.19664062 6.14210938 -0.1328125 6.1328125 C-1.13183594 6.12121094 -2.13085938 6.10960937 -3.16015625 6.09765625 C-3.54234392 4.44150968 -3.87410727 2.77308601 -4.16015625 1.09765625 C-3.16015625 0.09765625 -3.16015625 0.09765625 0 0 Z " fill="#6752A7" transform="translate(196.16015625,256.90234375)"/>
<path d="M0 0 C3.5625 1.625 3.5625 1.625 6 3 C5.67 4.32 5.34 5.64 5 7 C-0.60766401 6.50809965 -5.03778178 5.73428351 -10 3 C-10.9375 0.8125 -10.9375 0.8125 -11 -1 C-7.476922 -2.761539 -3.64706972 -1.06296504 0 0 Z " fill="#46659D" transform="translate(78,236)"/>
<path d="M0 0 C0 1.32 0 2.64 0 4 C-3.06533164 5.53266582 -6.26754272 5.10276471 -9.625 5.0625 C-10.33140625 5.05798828 -11.0378125 5.05347656 -11.765625 5.04882812 C-13.51045275 5.03703875 -15.255237 5.01910324 -17 5 C-17 1 -17 1 -16 0 C-3.74025974 -1.87012987 -3.74025974 -1.87012987 0 0 Z " fill="#615AAA" transform="translate(81,259)"/>
<path d="M0 0 C0.6953125 1.70703125 0.6953125 1.70703125 1 4 C-0.2578125 6.32421875 -0.2578125 6.32421875 -2.125 8.6875 C-2.72570312 9.47511719 -3.32640625 10.26273437 -3.9453125 11.07421875 C-6.31099243 13.2914815 -7.81925823 13.67532221 -11 14 C-11.765625 12.328125 -11.765625 12.328125 -12 10 C-10.234375 7.421875 -10.234375 7.421875 -7.75 4.75 C-6.94046875 3.85796875 -6.1309375 2.9659375 -5.296875 2.046875 C-3 0 -3 0 0 0 Z " fill="#77469C" transform="translate(99,298)"/>
<path d="M0 0 C0.87785156 0.36480469 1.75570312 0.72960937 2.66015625 1.10546875 C3.53542969 1.46253906 4.41070312 1.81960938 5.3125 2.1875 C7.72265625 3.29296875 7.72265625 3.29296875 10.72265625 5.29296875 C10.39265625 6.94296875 10.06265625 8.59296875 9.72265625 10.29296875 C4.07352562 8.63589043 -0.54035012 6.81534863 -5.27734375 3.29296875 C-4.94734375 2.30296875 -4.61734375 1.31296875 -4.27734375 0.29296875 C-2.27734375 -0.70703125 -2.27734375 -0.70703125 0 0 Z " fill="#7647A6" transform="translate(193.27734375,282.70703125)"/>
<path d="M0 0 C0 1.65 0 3.3 0 5 C-1.74294678 5.86846831 -3.49468663 6.71930627 -5.25 7.5625 C-6.22453125 8.03816406 -7.1990625 8.51382813 -8.203125 9.00390625 C-11.09856297 10.03510273 -12.19966161 10.11346788 -15 9 C-15 7.68 -15 6.36 -15 5 C-13.25447527 4.15733289 -11.5033792 3.32619962 -9.75 2.5 C-8.77546875 2.0359375 -7.8009375 1.571875 -6.796875 1.09375 C-4 0 -4 0 0 0 Z " fill="#5E73BD" transform="translate(204,229)"/>
<path d="M0 0 C-0.51881113 4.1724106 -1.71151274 6.25416821 -4.5625 9.3125 C-5.20316406 10.00988281 -5.84382812 10.70726562 -6.50390625 11.42578125 C-6.99761719 11.94527344 -7.49132812 12.46476563 -8 13 C-9.65 12.67 -11.3 12.34 -13 12 C-12.39698727 8.47713614 -11.0542456 6.45498397 -8.75 3.75 C-8.16734375 3.04359375 -7.5846875 2.3371875 -6.984375 1.609375 C-4.50334709 -0.40279724 -3.11369948 -0.32210684 0 0 Z " fill="#466EA4" transform="translate(185,206)"/>
<path d="M0 0 C1.65 0 3.3 0 5 0 C5.33 0.66 5.66 1.32 6 2 C7.485 2.2475 7.485 2.2475 9 2.5 C10.485 2.7475 10.485 2.7475 12 3 C12.33 3.66 12.66 4.32 13 5 C14.134375 5.474375 15.26875 5.94875 16.4375 6.4375 C20 8 20 8 22 11 C15.80481527 10.58411954 10.73310689 9.39748106 5 7 C5 6.34 5 5.68 5 5 C4.34 5 3.68 5 3 5 C3 4.34 3 3.68 3 3 C2.34 3 1.68 3 1 3 C0.67 2.01 0.34 1.02 0 0 Z " fill="#A14FD9" transform="translate(109,287)"/>
<path d="M0 0 C2.875 0.6875 2.875 0.6875 3.875 1.6875 C4.0625 4.625 4.0625 4.625 3.875 7.6875 C1.875 9.6875 1.875 9.6875 -1.125 9.9375 C-4.125 9.6875 -4.125 9.6875 -6.125 7.6875 C-6.4375 4.6875 -6.4375 4.6875 -6.125 1.6875 C-3.125 -0.3125 -3.125 -0.3125 0 0 Z " fill="#3E73A7" transform="translate(168.125,236.3125)"/>
<path d="M0 0 C-0.33 1.98 -0.66 3.96 -1 6 C-1.99 5.34 -2.98 4.68 -4 4 C-5.58689029 5.0781163 -7.16936082 6.16273952 -8.75 7.25 C-9.63171875 7.85328125 -10.5134375 8.4565625 -11.421875 9.078125 C-13.85433494 10.89141332 -15.91728069 12.80049269 -18 15 C-18.66 14.67 -19.32 14.34 -20 14 C-20 13.34 -20 12.68 -20 12 C-19.34 12 -18.68 12 -18 12 C-18.33 10.02 -18.66 8.04 -19 6 C-17.68 5.34 -16.36 4.68 -15 4 C-15.33 4.99 -15.66 5.98 -16 7 C-15.01 6.67 -14.02 6.34 -13 6 C-12.566875 5.01 -12.566875 5.01 -12.125 4 C-11.75375 3.34 -11.3825 2.68 -11 2 C-8.5 1.3125 -8.5 1.3125 -6 1 C-4 0 -4 0 0 0 Z " fill="#417BC1" transform="translate(132,238)"/>
<path d="M0 0 C3.43950364 0.61198376 5.51564485 1.92058847 8.25 4.0625 C8.95640625 4.61035156 9.6628125 5.15820312 10.390625 5.72265625 C11.18726562 6.35494141 11.18726562 6.35494141 12 7 C11.67 8.65 11.34 10.3 11 12 C6.8275894 11.48118887 4.74583179 10.28848726 1.6875 7.4375 C0.99011719 6.79683594 0.29273437 6.15617188 -0.42578125 5.49609375 C-1.20501953 4.75552734 -1.20501953 4.75552734 -2 4 C-1.34 2.68 -0.68 1.36 0 0 Z " fill="#3F87AB" transform="translate(80,211)"/>
<path d="M0 0 C1.98 0.99 1.98 0.99 4 2 C4.33 1.34 4.66 0.68 5 0 C5.99 0 6.98 0 8 0 C9.09506492 3.28519475 9.09960608 5.73663415 9.0625 9.1875 C9.05347656 10.27417969 9.04445312 11.36085938 9.03515625 12.48046875 C9.02355469 13.31191406 9.01195312 14.14335937 9 15 C8.34 15 7.68 15 7 15 C6.34 12.69 5.68 10.38 5 8 C4.01 8.33 3.02 8.66 2 9 C2 10.65 2 12.3 2 14 C1.67 14 1.34 14 1 14 C0.67 9.38 0.34 4.76 0 0 Z " fill="#5B63AF" transform="translate(155,259)"/>
<path d="M0 0 C1.65 0.33 3.3 0.66 5 1 C5 3.31 5 5.62 5 8 C2.70858714 8.05384521 0.41681812 8.09272087 -1.875 8.125 C-3.78925781 8.15980469 -3.78925781 8.15980469 -5.7421875 8.1953125 C-9 8 -9 8 -11 6 C-10.67 5.34 -10.34 4.68 -10 4 C-6.7 4 -3.4 4 0 4 C0 2.68 0 1.36 0 0 Z " fill="#F9F8F9" transform="translate(324,253)"/>
<path d="M0 0 C3.17332206 1.19565088 5.1107128 2.89697631 7.3125 5.4375 C7.84488281 6.03433594 8.37726563 6.63117188 8.92578125 7.24609375 C9.45751953 8.11427734 9.45751953 8.11427734 10 9 C9.67 9.99 9.34 10.98 9 12 C4.40040149 11.72943538 2.275978 9.74396837 -0.86328125 6.66796875 C-2 5 -2 5 -2 1 C-1.34 0.67 -0.68 0.34 0 0 Z " fill="#653D8C" transform="translate(175,302)"/>
<path d="M0 0 C0.99 0 1.98 0 3 0 C3 0.99 3 1.98 3 3 C3.66 3 4.32 3 5 3 C5.13277344 3.98742187 5.26554687 4.97484375 5.40234375 5.9921875 C5.57894531 7.27351562 5.75554687 8.55484375 5.9375 9.875 C6.11152344 11.15117187 6.28554687 12.42734375 6.46484375 13.7421875 C6.81433227 16.87559454 6.81433227 16.87559454 8 19 C6.02 19.99 6.02 19.99 4 21 C3.67 15.39 3.34 9.78 3 4 C2.01 4 1.02 4 0 4 C-0.33 6.31 -0.66 8.62 -1 11 C-2.32 11.33 -3.64 11.66 -5 12 C-4.54738642 10.56068883 -4.08767021 9.12361001 -3.625 7.6875 C-3.24214844 6.48673828 -3.24214844 6.48673828 -2.8515625 5.26171875 C-2 3 -2 3 0 0 Z " fill="#49629C" transform="translate(100,220)"/>
<path d="M0 0 C5.51436031 -0.12532637 5.51436031 -0.12532637 7.9375 0.5 C10.78011831 1.2748667 10.78011831 1.2748667 17 1 C17 8.92 17 16.84 17 25 C15.68 24.67 14.36 24.34 13 24 C13.99 24 14.98 24 16 24 C16 16.74 16 9.48 16 2 C11.545 3.485 11.545 3.485 7 5 C7 5.99 7 6.98 7 8 C5.02 8 3.04 8 1 8 C1.66 7.67 2.32 7.34 3 7 C2.67 6.01 2.34 5.02 2 4 C2.33 3.34 2.66 2.68 3 2 C2.01 1.34 1.02 0.68 0 0 Z " fill="#9D9CA3" transform="translate(390,246)"/>
<path d="M0 0 C10.41584831 -1.06180978 10.41584831 -1.06180978 14.16796875 1.453125 C15.7708629 3.26542338 17.0344633 4.77878997 18 7 C17.67 7.99 17.34 8.98 17 10 C15.02 10.33 13.04 10.66 11 11 C9.16308743 7.21812119 8.84162374 5.05431692 10 1 C6.7 1 3.4 1 0 1 C0 0.67 0 0.34 0 0 Z " fill="#BFBFC3" transform="translate(337,238)"/>
<path d="M0 0 C6.02998775 6.02998775 8.58176453 11.49587877 9 20 C8.5625 23 8.5625 23 8 25 C7.67 25 7.34 25 7 25 C6.86722656 24.22914063 6.73445312 23.45828125 6.59765625 22.6640625 C6.42105469 21.66117188 6.24445313 20.65828125 6.0625 19.625 C5.88847656 18.62726563 5.71445313 17.62953125 5.53515625 16.6015625 C5.12287938 14.03090344 5.12287938 14.03090344 4 12 C2.68 12 1.36 12 0 12 C0 8.04 0 4.08 0 0 Z " fill="#2EA0C3" transform="translate(132,204)"/>
<path d="M0 0 C1.4540625 0.0309375 1.4540625 0.0309375 2.9375 0.0625 C2.9375 2.3725 2.9375 4.6825 2.9375 7.0625 C2.2775 5.7425 1.6175 4.4225 0.9375 3.0625 C-1.0425 5.3725 -3.0225 7.6825 -5.0625 10.0625 C-6.0525 9.7325 -7.0425 9.4025 -8.0625 9.0625 C-8.0625 7.7425 -8.0625 6.4225 -8.0625 5.0625 C-8.7225 5.0625 -9.3825 5.0625 -10.0625 5.0625 C-8.66933123 2.27616246 -6.90269484 2.12757306 -4.0625 1.0625 C-3.0625 0.0625 -3.0625 0.0625 0 0 Z " fill="#6A6ACA" transform="translate(143.0625,260.9375)"/>
<path d="M0 0 C0.99 0 1.98 0 3 0 C2.67 0.9075 2.34 1.815 2 2.75 C-0.17201067 10.38306606 0.30582584 18.59102105 3 26 C0.525 25.01 0.525 25.01 -2 24 C-2.3690205 7.1070615 -2.3690205 7.1070615 0 0 Z " fill="#7859BD" transform="translate(109,256)"/>
<path d="M0 0 C3.55780196 0.60990891 6.6828589 1.5783681 10 3 C10 4.65 10 6.3 10 8 C9.30132812 7.855625 8.60265625 7.71125 7.8828125 7.5625 C6.97273437 7.376875 6.06265625 7.19125 5.125 7 C4.22007812 6.814375 3.31515625 6.62875 2.3828125 6.4375 C0.07592097 5.93980405 0.07592097 5.93980405 -2 6 C-2.33 5.01 -2.66 4.02 -3 3 C-2.34 3 -1.68 3 -1 3 C-0.67 2.01 -0.34 1.02 0 0 Z " fill="#5581D4" transform="translate(146,245)"/>
<path d="M0 0 C1.3303125 0.37125 1.3303125 0.37125 2.6875 0.75 C2.6875 1.08 2.6875 1.41 2.6875 1.75 C1.718125 2.059375 0.74875 2.36875 -0.25 2.6875 C-3.15315792 3.44523342 -3.15315792 3.44523342 -4.3125 4.75 C-2.07602369 5.86823815 -0.66358471 5.94396061 1.8203125 6.06640625 C2.62597656 6.10830078 3.43164062 6.15019531 4.26171875 6.19335938 C5.10347656 6.23267578 5.94523438 6.27199219 6.8125 6.3125 C7.66199219 6.35568359 8.51148438 6.39886719 9.38671875 6.44335938 C11.48678223 6.54954236 13.58711948 6.65028497 15.6875 6.75 C15.6875 7.08 15.6875 7.41 15.6875 7.75 C7.7675 7.75 -0.1525 7.75 -8.3125 7.75 C-8.3125 3.75 -8.3125 3.75 -6.1875 1.4375 C-3.3125 -0.25 -3.3125 -0.25 0 0 Z " fill="#543282" transform="translate(160.3125,293.25)"/>
<path d="M0 0 C0 0.99 0 1.98 0 3 C0.556875 3.9590625 0.556875 3.9590625 1.125 4.9375 C1.41375 5.618125 1.7025 6.29875 2 7 C1.649375 7.639375 1.29875 8.27875 0.9375 8.9375 C0.628125 9.618125 0.31875 10.29875 0 11 C1.28184562 13.74832154 1.28184562 13.74832154 3 16 C1.68 16.33 0.36 16.66 -1 17 C-4.2689803 11.76963152 -4.33810675 8.83032227 -3 3 C-1.4375 1 -1.4375 1 0 0 Z " fill="#C7C7C8" transform="translate(335,239)"/>
<path d="M0 0 C0.66 0.99 1.32 1.98 2 3 C5.58357241 3.25015873 5.58357241 3.25015873 9 3 C9 3.66 9 4.32 9 5 C1.25 5.125 1.25 5.125 -1 4 C-1.33 5.65 -1.66 7.3 -2 9 C-4.99324263 7.9024777 -5.84610901 7.32317108 -7.25 4.375 C-7.4975 3.59125 -7.745 2.8075 -8 2 C-4.91190305 0.23537317 -3.76687864 0 0 0 Z " fill="#BDBCC0" transform="translate(338,260)"/>
<path d="M0 0 C2.20842803 3.31264204 2.19725756 3.83451396 1.6875 7.5625 C1.58824219 8.34753906 1.48898438 9.13257813 1.38671875 9.94140625 C1 12 1 12 0 14 C-1.32 13.67 -2.64 13.34 -4 13 C-3.91266424 11.39482903 -3.80447776 9.79078338 -3.6875 8.1875 C-3.62949219 7.29417969 -3.57148438 6.40085937 -3.51171875 5.48046875 C-2.93686419 2.69396 -2.1793144 1.75864246 0 0 Z " fill="#726AD5" transform="translate(160,265)"/>
<path d="M0 0 C1.07894531 0.04640625 2.15789062 0.0928125 3.26953125 0.140625 C4.35621094 0.17671875 5.44289062 0.2128125 6.5625 0.25 C7.39394531 0.29640625 8.22539062 0.3428125 9.08203125 0.390625 C9.41203125 1.380625 9.74203125 2.370625 10.08203125 3.390625 C6.65970153 4.53140157 3.99529908 4.48877617 0.39453125 4.453125 C-1.37470703 4.43958984 -1.37470703 4.43958984 -3.1796875 4.42578125 C-4.08332031 4.41417969 -4.98695313 4.40257812 -5.91796875 4.390625 C-4.20732299 1.34147397 -3.55091093 0.47535622 0 0 Z " fill="#8858D5" transform="translate(160.91796875,294.609375)"/>
<path d="M0 0 C0.33 0.99 0.66 1.98 1 3 C0.01 3.66 -0.98 4.32 -2 5 C-2.0450286 6.66605828 -2.03874921 8.33378384 -2 10 C-3 12.8125 -3 12.8125 -4 15 C-5.90608098 11.78817851 -6.22266247 9.46117397 -6.125 5.75 C-6.09792969 4.41195312 -6.09792969 4.41195312 -6.0703125 3.046875 C-6.04710938 2.37140625 -6.02390625 1.6959375 -6 1 C-4 0 -4 0 0 0 Z " fill="#26AEDF" transform="translate(123,196)"/>
<path d="M0 0 C2.9719385 1.12451727 5.33440687 2.22293791 8 4 C8 4.66 8 5.32 8 6 C8.66 6.33 9.32 6.66 10 7 C9.38511719 6.89300781 8.77023438 6.78601563 8.13671875 6.67578125 C6.92435547 6.49595703 6.92435547 6.49595703 5.6875 6.3125 C4.48673828 6.12107422 4.48673828 6.12107422 3.26171875 5.92578125 C0.90350321 5.77257193 0.90350321 5.77257193 -0.79296875 7.48046875 C-1.39044922 8.23263672 -1.39044922 8.23263672 -2 9 C-2.6875 7.3125 -2.6875 7.3125 -3 5 C-1.5625 2.25 -1.5625 2.25 0 0 Z " fill="#4C73B0" transform="translate(145,240)"/>
<path d="M0 0 C9.57 0 19.14 0 29 0 C29 0.33 29 0.66 29 1 C16.625 1.495 16.625 1.495 4 2 C3.67 3.32 3.34 4.64 3 6 C2.01 6.33 1.02 6.66 0 7 C-0.93423645 3.98968256 -1.04449911 3.13349732 0 0 Z " fill="#417998" transform="translate(147,225)"/>
<path d="M0 0 C2 1.25 2 1.25 4 3 C4 4.32 4 5.64 4 7 C3.34 7 2.68 7 2 7 C2.309375 7.928125 2.309375 7.928125 2.625 8.875 C2.74875 9.57625 2.8725 10.2775 3 11 C2.34 11.66 1.68 12.32 1 13 C0.34 12.67 -0.32 12.34 -1 12 C-1.02687279 10.18757948 -1.04633715 8.37504767 -1.0625 6.5625 C-1.07410156 5.55316406 -1.08570313 4.54382813 -1.09765625 3.50390625 C-1 1 -1 1 0 0 Z " fill="#FBFBFB" transform="translate(217,245)"/>
<path d="M0 0 C0.66 0.33 1.32 0.66 2 1 C1.67 2.98 1.34 4.96 1 7 C0.34 7 -0.32 7 -1 7 C-1 8.65 -1 10.3 -1 12 C-3.97 11.505 -3.97 11.505 -7 11 C-6.6875 9.0625 -6.6875 9.0625 -6 7 C-5.01 6.67 -4.02 6.34 -3 6 C-2.26676204 3.98491642 -2.26676204 3.98491642 -2 2 C-1.34 2 -0.68 2 0 2 C0 1.34 0 0.68 0 0 Z " fill="#8C58DA" transform="translate(154,280)"/>
<path d="M0 0 C0.66 0 1.32 0 2 0 C6.53574091 6.23664375 6.44701413 11.43801103 6 19 C5.34 19.33 4.68 19.66 4 20 C3.67 15.05 3.34 10.1 3 5 C2.01 4.67 1.02 4.34 0 4 C0 2.68 0 1.36 0 0 Z " fill="#6062AB" transform="translate(146,256)"/>
<path d="M0 0 C0.99 0 1.98 0 3 0 C4.00496852 3.01490557 4.10335303 5.04181692 4.0625 8.1875 C4.05347656 9.08855469 4.04445312 9.98960937 4.03515625 10.91796875 C4.02355469 11.60503906 4.01195312 12.29210937 4 13 C3.01 13 2.02 13 1 13 C0.67 8.71 0.34 4.42 0 0 Z " fill="#686BCF" transform="translate(146,261)"/>
<path d="M0 0 C0.33 0 0.66 0 1 0 C1.02688151 1.64574566 1.04634123 3.29161413 1.0625 4.9375 C1.07410156 5.85402344 1.08570312 6.77054688 1.09765625 7.71484375 C1 10 1 10 0 11 C-0.07325168 13.86267567 -0.09238205 16.700719 -0.0625 19.5625 C-0.05798828 20.36880859 -0.05347656 21.17511719 -0.04882812 22.00585938 C-0.03700518 24.00393756 -0.01906914 26.00197783 0 28 C-2.55944572 24.15067489 -2.29613641 20.13581848 -2.25 15.6875 C-2.25773437 14.95337891 -2.26546875 14.21925781 -2.2734375 13.46289062 C-2.25622646 8.61367977 -1.53184184 4.60160426 0 0 Z " fill="#5F4599" transform="translate(88,244)"/>
<path d="M0 0 C1.93166016 0.01740234 1.93166016 0.01740234 3.90234375 0.03515625 C5.19269531 0.04417969 6.48304688 0.05320313 7.8125 0.0625 C8.81152344 0.07410156 9.81054688 0.08570313 10.83984375 0.09765625 C10.83984375 0.42765625 10.83984375 0.75765625 10.83984375 1.09765625 C6.54984375 1.09765625 2.25984375 1.09765625 -2.16015625 1.09765625 C-2.16015625 3.40765625 -2.16015625 5.71765625 -2.16015625 8.09765625 C0.80984375 8.09765625 3.77984375 8.09765625 6.83984375 8.09765625 C6.83984375 8.42765625 6.83984375 8.75765625 6.83984375 9.09765625 C-0.78515625 10.09765625 -0.78515625 10.09765625 -4.16015625 10.09765625 C-4.82015625 9.43765625 -5.48015625 8.77765625 -6.16015625 8.09765625 C-5.50015625 8.09765625 -4.84015625 8.09765625 -4.16015625 8.09765625 C-4.18078125 6.96328125 -4.20140625 5.82890625 -4.22265625 4.66015625 C-4.14314531 0.12803292 -4.14314531 0.12803292 0 0 Z " fill="#DDDCDF" transform="translate(225.16015625,243.90234375)"/>
<path d="M0 0 C0.33 0 0.66 0 1 0 C2.85683479 10.12818977 2.85683479 10.12818977 0.8359375 14.54296875 C-1.59035572 17.82384308 -3.06803744 19.68934581 -7 21 C-7 20.34 -7 19.68 -7 19 C-6.34 19 -5.68 19 -5 19 C-2.73383385 12.74538144 -1.16204993 6.54849313 0 0 Z " fill="#366496" transform="translate(115,216)"/>
<path d="M0 0 C-0.33 2.31 -0.66 4.62 -1 7 C-1.86625 6.4740625 -1.86625 6.4740625 -2.75 5.9375 C-5.35801776 4.85082593 -6.39417629 5.06934867 -9 6 C-9 4.35 -9 2.7 -9 1 C-6.04335481 -0.4783226 -3.25770263 -0.06032783 0 0 Z " fill="#F6F6F5" transform="translate(254,247)"/>
<path d="M0 0 C4.23090117 0.30220723 6.25186236 3.02285089 9 6 C5.44175575 6 2.42984189 5.94616328 -1 5 C-1 1 -1 1 0 0 Z " fill="#4180A3" transform="translate(80,211)"/>
<path d="M0 0 C0.33 0 0.66 0 1 0 C1.33 2.64 1.66 5.28 2 8 C2.66 7.01 3.32 6.02 4 5 C4.17835515 9.54805635 3.99785435 12.8794254 2 17 C1.34 16.67 0.68 16.34 0 16 C0 10.72 0 5.44 0 0 Z " fill="#6475DB" transform="translate(178,266)"/>
<path d="M0 0 C1.32 0.33 2.64 0.66 4 1 C4 3.97 4 6.94 4 10 C3.01 10 2.02 10 1 10 C0 9 0 9 -0.09765625 6.93359375 C-0.08605469 6.10988281 -0.07445313 5.28617187 -0.0625 4.4375 C-0.05347656 3.61121094 -0.04445313 2.78492188 -0.03515625 1.93359375 C-0.02355469 1.29550781 -0.01195313 0.65742188 0 0 Z " fill="#8B4FD7" transform="translate(103,272)"/>
<path d="M0 0 C0.33 0 0.66 0 1 0 C1.39824713 8.09769158 0.59290729 16.11063907 -4 23 C-3.88623383 20.87436897 -3.75864369 18.7494739 -3.625 16.625 C-3.55539063 15.44164062 -3.48578125 14.25828125 -3.4140625 13.0390625 C-3 10 -3 10 -1 8 C-0.54188325 6.02764667 -0.54188325 6.02764667 -0.375 3.875 C-0.25125 2.59625 -0.1275 1.3175 0 0 Z " fill="#2C6B9A" transform="translate(141,224)"/>
<path d="M0 0 C0.99 0 1.98 0 3 0 C3.8723412 2.99480917 4.10829766 5.63575911 4.0625 8.75 C4.05347656 9.54921875 4.04445313 10.3484375 4.03515625 11.171875 C4.01775391 12.07679688 4.01775391 12.07679688 4 13 C3.71382813 12.38640625 3.42765625 11.7728125 3.1328125 11.140625 C1.79175425 8.60648734 0.08543786 6.94640867 -2 5 C-1.34 3.35 -0.68 1.7 0 0 Z " fill="#5478D6" transform="translate(100,224)"/>
<path d="M0 0 C0.99 0 1.98 0 3 0 C4.0070238 5.03511899 3.97387813 8.23947038 2 13 C0 10 0 10 0.375 7.3125 C0.58125 6.549375 0.7875 5.78625 1 5 C0.34 5 -0.32 5 -1 5 C-0.67 3.35 -0.34 1.7 0 0 Z " fill="#24B5DF" transform="translate(129,204)"/>
<path d="M0 0 C2.31 0.33 4.62 0.66 7 1 C7.33 2.65 7.66 4.3 8 6 C7.01 6.33 6.02 6.66 5 7 C2.47411298 4.63707344 1.11179163 3.33537489 0 0 Z " fill="#7C53AA" transform="translate(196,286)"/>
<path d="M0 0 C2.49059397 4.98118793 3.2136995 7.75098197 2.5625 13.25 C2.46066406 14.14203125 2.35882813 15.0340625 2.25390625 15.953125 C2.17011719 16.62859375 2.08632813 17.3040625 2 18 C0.35 18.33 -1.3 18.66 -3 19 C-2.01 18.67 -1.02 18.34 0 18 C0 12.06 0 6.12 0 0 Z " fill="#7A7982" transform="translate(379,252)"/>
<path d="M0 0 C5.75 -0.125 5.75 -0.125 8 1 C7.67 3.31 7.34 5.62 7 8 C5.02 8 3.04 8 1 8 C1.66 7.67 2.32 7.34 3 7 C2.67 6.01 2.34 5.02 2 4 C2.33 3.34 2.66 2.68 3 2 C2.01 1.34 1.02 0.68 0 0 Z " fill="#C0C0C1" transform="translate(390,246)"/>
<path d="M0 0 C2.97 0.495 2.97 0.495 6 1 C6 2.65 6 4.3 6 6 C3.625 6.125 3.625 6.125 1 6 C0.34 5.34 -0.32 4.68 -1 4 C-0.625 1.875 -0.625 1.875 0 0 Z " fill="#3B94DD" transform="translate(165,238)"/>
<path d="M0 0 C0.042721 1.66611905 0.04063832 3.33382885 0 5 C-1 6 -1 6 -3.5625 6.0625 C-4.7690625 6.0315625 -4.7690625 6.0315625 -6 6 C-6 5.34 -6 4.68 -6 4 C-6.66 3.67 -7.32 3.34 -8 3 C-4.93882432 0.37613513 -4.26826873 0 0 0 Z " fill="#F6F5F7" transform="translate(278,247)"/>
<path d="M0 0 C0 1.32 0 2.64 0 4 C-2.31 4 -4.62 4 -7 4 C-7.33 2.68 -7.66 1.36 -8 0 C-5.13822943 -1.43088528 -3.06624227 -0.59991697 0 0 Z " fill="#5080B9" transform="translate(75,235)"/>
<path d="M0 0 C2.0625 0.4375 2.0625 0.4375 4 1 C4 1.99 4 2.98 4 4 C3.01 4.495 3.01 4.495 2 5 C2.33 5.33 2.66 5.66 3 6 C3.04063832 7.66617115 3.042721 9.33388095 3 11 C0.17661571 7.8083482 -0.62384955 5.23169259 -1 1 C-0.67 0.67 -0.34 0.34 0 0 Z " fill="#6B3F8B" transform="translate(155,307)"/>
<path d="M0 0 C0.33 0 0.66 0 1 0 C1 4.29 1 8.58 1 13 C0.01 12.67 -0.98 12.34 -2 12 C-2 8.7 -2 5.4 -2 2 C-1.34 2 -0.68 2 0 2 C0 1.34 0 0.68 0 0 Z " fill="#995BCA" transform="translate(138,312)"/>
<path d="M0 0 C1.32 0.33 2.64 0.66 4 1 C3.67 3.64 3.34 6.28 3 9 C2.67 8.01 2.34 7.02 2 6 C-0.01508358 5.26676204 -0.01508358 5.26676204 -2 5 C-1.34 3.35 -0.68 1.7 0 0 Z " fill="#6E4297" transform="translate(116,307)"/>
<path d="M0 0 C1.12588014 0.95729916 2.2506715 1.91587895 3.375 2.875 C4.00148438 3.40867187 4.62796875 3.94234375 5.2734375 4.4921875 C6.55836651 5.61432007 7.79371975 6.79371975 9 8 C7.02 8 5.04 8 3 8 C2.67 7.01 2.34 6.02 2 5 C1.01 4.67 0.02 4.34 -1 4 C-0.67 2.68 -0.34 1.36 0 0 Z " fill="#804CAC" transform="translate(112,282)"/>
<path d="M0 0 C0.33 0 0.66 0 1 0 C1 4.29 1 8.58 1 13 C-0.65 13 -2.3 13 -4 13 C-4 12.01 -4 11.02 -4 10 C-3.01 9.67 -2.02 9.34 -1 9 C-0.67 6.03 -0.34 3.06 0 0 Z " fill="#ECEBEF" transform="translate(269,258)"/>
<path d="M0 0 C2 3 2 3 2 5 C2.99 5 3.98 5 5 5 C4.67 6.65 4.34 8.3 4 10 C2.125 9.875 2.125 9.875 0 9 C-1.375 6.125 -1.375 6.125 -2 3 C-1.34 2.01 -0.68 1.02 0 0 Z " fill="#FAFAF7" transform="translate(337,246)"/>
<path d="M0 0 C0 1.65 0 3.3 0 5 C-1.32 5.33 -2.64 5.66 -4 6 C-4 5.34 -4 4.68 -4 4 C-6.31 4 -8.62 4 -11 4 C-7.63661956 0.63661956 -4.71164284 0 0 0 Z " fill="#536099" transform="translate(204,229)"/>
<path d="M0 0 C0.33 0.99 0.66 1.98 1 3 C-0.3125 4.9375 -0.3125 4.9375 -2 7 C-2.433125 8.0828125 -2.433125 8.0828125 -2.875 9.1875 C-4 11 -4 11 -6.625 11.75 C-7.40875 11.8325 -8.1925 11.915 -9 12 C-9 11.34 -9 10.68 -9 10 C-8.34 10 -7.68 10 -7 10 C-6.67 9.01 -6.34 8.02 -6 7 C-5.34 7 -4.68 7 -4 7 C-3.71125 6.21625 -3.4225 5.4325 -3.125 4.625 C-2 2 -2 2 0 0 Z " fill="#5183D3" transform="translate(115,229)"/>
<path d="M0 0 C2.97 0.495 2.97 0.495 6 1 C6.33 2.32 6.66 3.64 7 5 C5.35 5.33 3.7 5.66 2 6 C1.34 4.02 0.68 2.04 0 0 Z " fill="#714D9E" transform="translate(178,308)"/>
<path d="M0 0 C1.98 0.495 1.98 0.495 4 1 C5.125 4.75 5.125 4.75 4 7 C1.525 6.01 1.525 6.01 -1 5 C-0.67 3.35 -0.34 1.7 0 0 Z " fill="#C0C0C3" transform="translate(281,272)"/>
<path d="M0 0 C4.62 0 9.24 0 14 0 C14.33 1.65 14.66 3.3 15 5 C13.68 4.67 12.36 4.34 11 4 C11 3.34 11 2.68 11 2 C7.37 1.67 3.74 1.34 0 1 C0 0.67 0 0.34 0 0 Z " fill="#4D3C7A" transform="translate(193,257)"/>
<path d="M0 0 C0.33 0 0.66 0 1 0 C0.25 7.75 0.25 7.75 -2 10 C-2 8.68 -2 7.36 -2 6 C-2.66 6 -3.32 6 -4 6 C-4.33 6.99 -4.66 7.98 -5 9 C-5.33 7.68 -5.66 6.36 -6 5 C-3 3 -3 3 0 3 C0 2.01 0 1.02 0 0 Z " fill="#4570BC" transform="translate(136,244)"/>
<path d="M0 0 C0.99 0 1.98 0 3 0 C2.690625 0.9075 2.38125 1.815 2.0625 2.75 C0.52310987 8.04506536 0.34179698 13.52225363 0 19 C-0.33 19 -0.66 19 -1 19 C-1.02705308 16.58325776 -1.04686438 14.1668206 -1.0625 11.75 C-1.07087891 11.06808594 -1.07925781 10.38617188 -1.08789062 9.68359375 C-1.10428392 6.30657446 -1.05628768 3.22708361 0 0 Z " fill="#5C569C" transform="translate(109,256)"/>
<path d="M0 0 C1.1700097 3.91736581 0.69584017 6.97959015 0 11 C-0.66 11 -1.32 11 -2 11 C-2.33 11.99 -2.66 12.98 -3 14 C-4.37095624 10.30962722 -3.60010967 8.29116165 -2.0625 4.75 C-1.68222656 3.85796875 -1.30195312 2.9659375 -0.91015625 2.046875 C-0.60980469 1.37140625 -0.30945313 0.6959375 0 0 Z " fill="#4E61A4" transform="translate(128,242)"/>
<path d="M0 0 C0.66 0.33 1.32 0.66 2 1 C2.36923077 7.52307692 2.36923077 7.52307692 0.5 9.9375 C0.005 10.288125 -0.49 10.63875 -1 11 C-1.66 10.67 -2.32 10.34 -3 10 C-3 9.34 -3 8.68 -3 8 C-2.34 8 -1.68 8 -1 8 C-1.20625 7.05125 -1.4125 6.1025 -1.625 5.125 C-1.74875 4.09375 -1.8725 3.0625 -2 2 C-1.34 1.34 -0.68 0.68 0 0 Z " fill="#5576D0" transform="translate(115,242)"/>
<path d="M0 0 C0.12375 0.53625 0.2475 1.0725 0.375 1.625 C1.12206016 4.4638286 2.05303364 7.22223202 3 10 C1.68 10.33 0.36 10.66 -1 11 C-2.26264601 6.70700357 -1.62950412 4.12168689 0 0 Z " fill="#4670A8" transform="translate(154,200)"/>
<path d="M0 0 C0.99 0 1.98 0 3 0 C3.33 1.98 3.66 3.96 4 6 C4.66 6 5.32 6 6 6 C6.33 6.99 6.66 7.98 7 9 C6.34 9.66 5.68 10.32 5 11 C4.16151196 9.54462432 3.32936066 8.08559627 2.5 6.625 C1.80390625 5.40683594 1.80390625 5.40683594 1.09375 4.1640625 C0 2 0 2 0 0 Z " fill="#723B9D" transform="translate(88,273)"/>
<path d="M0 0 C1.32 0.33 2.64 0.66 4 1 C5.31223496 4.93670488 4.24296256 7.12488144 3 11 C2.67 11 2.34 11 2 11 C1.34 7.37 0.68 3.74 0 0 Z " fill="#6D65D6" transform="translate(104,256)"/>
<path d="M0 0 C0 0.33 0 0.66 0 1 C-1.7634375 1.061875 -1.7634375 1.061875 -3.5625 1.125 C-8.67389492 1.71722936 -11.50123478 4.42469929 -15 8 C-14.41684026 5.10849963 -14.030207 4.03398287 -12 1.75 C-7.93075448 -0.62372655 -4.59948687 -0.36074407 0 0 Z " fill="#88888B" transform="translate(322,246)"/>
<path d="M0 0 C0.33 1.32 0.66 2.64 1 4 C1.66 4 2.32 4 3 4 C3 5.32 3 6.64 3 8 C2.01 8.495 2.01 8.495 1 9 C0.59270772 11.32156597 0.25561323 13.6568787 0 16 C-0.33 16 -0.66 16 -1 16 C-1.11138159 10.54230189 -0.91657981 5.38490641 0 0 Z " fill="#3C9ED1" transform="translate(117,207)"/>
<path d="M0 0 C0.33 0 0.66 0 1 0 C1 4.95 1 9.9 1 15 C-0.98 15.99 -0.98 15.99 -3 17 C-3 16.01 -3 15.02 -3 14 C-2.34 14 -1.68 14 -1 14 C-0.67 9.38 -0.34 4.76 0 0 Z " fill="#3C738C" transform="translate(138,177)"/>
<path d="M0 0 C0.66 0.99 1.32 1.98 2 3 C1.34 4.32 0.68 5.64 0 7 C-1.32 6.34 -2.64 5.68 -4 5 C-4 4.01 -4 3.02 -4 2 C-3.01 2.33 -2.02 2.66 -1 3 C-0.67 2.01 -0.34 1.02 0 0 Z " fill="#6F458F" transform="translate(163,317)"/>
<path d="M0 0 C0.33 1.32 0.66 2.64 1 4 C2.32 4.33 3.64 4.66 5 5 C4.34 5.66 3.68 6.32 3 7 C0.375 6.625 0.375 6.625 -2 6 C-1.125 1.125 -1.125 1.125 0 0 Z " fill="#544689" transform="translate(144,276)"/>
<path d="M0 0 C2.2109885 0.42793326 3.98119242 0.99059621 6 2 C6 3.32 6 4.64 6 6 C2.34683329 4.75023244 1.21934164 4.32901247 -1 1 C-0.67 0.67 -0.34 0.34 0 0 Z " fill="#6C65D9" transform="translate(129,264)"/>
<path d="M0 0 C0.33 0.66 0.66 1.32 1 2 C1.99 1.67 2.98 1.34 4 1 C4 1.66 4 2.32 4 3 C4.66 3.33 5.32 3.66 6 4 C5.67 4.99 5.34 5.98 5 7 C3.68 7 2.36 7 1 7 C0.67 4.69 0.34 2.38 0 0 Z " fill="#3985DA" transform="translate(131,240)"/>
<path d="M0 0 C0.33 0.99 0.66 1.98 1 3 C1.99 3 2.98 3 4 3 C4 2.34 4 1.68 4 1 C4.66 1 5.32 1 6 1 C5.67 2.65 5.34 4.3 5 6 C3.125 5.75 3.125 5.75 1 5 C-0.25 2.9375 -0.25 2.9375 -1 1 C-0.67 0.67 -0.34 0.34 0 0 Z " fill="#3C819E" transform="translate(100,202)"/>
<path d="M0 0 C2.475 0.495 2.475 0.495 5 1 C4.6875 2.875 4.6875 2.875 4 5 C3.01 5.66 2.02 6.32 1 7 C0.67 4.69 0.34 2.38 0 0 Z " fill="#5088B3" transform="translate(157,194)"/>
<path d="M0 0 C1.65 0 3.3 0 5 0 C4.67 0.99 4.34 1.98 4 3 C3.65772583 4.33106622 3.32248257 5.66400079 3 7 C1.5 5.75 1.5 5.75 0 4 C0 2.68 0 1.36 0 0 Z " fill="#3C8BA1" transform="translate(94,192)"/>
<path d="M0 0 C0.33 0.66 0.66 1.32 1 2 C1.66 2 2.32 2 3 2 C2.67 3.65 2.34 5.3 2 7 C1.01 7 0.02 7 -1 7 C-1.04254356 5.00045254 -1.04080783 2.99958364 -1 1 C-0.67 0.67 -0.34 0.34 0 0 Z " fill="#9254C6" transform="translate(115,311)"/>
<path d="M0 0 C-0.33 1.32 -0.66 2.64 -1 4 C-1.33 3.01 -1.66 2.02 -2 1 C-3.65 1.66 -5.3 2.32 -7 3 C-7.66 2.34 -8.32 1.68 -9 1 C-5.64919071 -1.10976881 -3.77897651 -1.0497157 0 0 Z " fill="#543F7C" transform="translate(85,282)"/>
<path d="M0 0 C1.32 0.66 2.64 1.32 4 2 C1.36 3.65 -1.28 5.3 -4 7 C-4.33 5.68 -4.66 4.36 -5 3 C-3.35 2.67 -1.7 2.34 0 2 C0 1.34 0 0.68 0 0 Z " fill="#486CB8" transform="translate(121,242)"/>
<path d="M0 0 C1.65 0.33 3.3 0.66 5 1 C5 1.99 5 2.98 5 4 C3.35 4 1.7 4 0 4 C0 2.68 0 1.36 0 0 Z " fill="#4D84DD" transform="translate(146,245)"/>
<path d="M0 0 C0.66 0.33 1.32 0.66 2 1 C1.67 1.66 1.34 2.32 1 3 C2.32 3.66 3.64 4.32 5 5 C3.35 5.33 1.7 5.66 0 6 C-0.66 4.68 -1.32 3.36 -2 2 C-1.34 1.34 -0.68 0.68 0 0 Z " fill="#505D93" transform="translate(190,233)"/>
<path d="M0 0 C2.31 0.33 4.62 0.66 7 1 C7 1.66 7 2.32 7 3 C4.36 3 1.72 3 -1 3 C-0.67 2.01 -0.34 1.02 0 0 Z " fill="#9F50E0" transform="translate(137,293)"/>
<path d="M0 0 C0.33 0.99 0.66 1.98 1 3 C-0.62339805 4.70884005 -2.29319053 6.37446717 -4 8 C-4.66 8 -5.32 8 -6 8 C-6 7.01 -6 6.02 -6 5 C-4.68 5 -3.36 5 -2 5 C-2 4.01 -2 3.02 -2 2 C-1.34 2 -0.68 2 0 2 C0 1.34 0 0.68 0 0 Z " fill="#615297" transform="translate(182,292)"/>
<path d="M0 0 C-1.28519565 2.86697492 -2.57129254 4.97607712 -5 7 C-5.66 7 -6.32 7 -7 7 C-6.67 5.68 -6.34 4.36 -6 3 C-5.34 3 -4.68 3 -4 3 C-4 2.34 -4 1.68 -4 1 C-2 0 -2 0 0 0 Z " fill="#A1A0A4" transform="translate(244,247)"/>
<path d="M0 0 C2.0625 0.4375 2.0625 0.4375 4 1 C4 2.65 4 4.3 4 6 C3.34 6 2.68 6 2 6 C0.375 3.5 0.375 3.5 -1 1 C-0.67 0.67 -0.34 0.34 0 0 Z " fill="#7B3FA3" transform="translate(95,283)"/>
<path d="M0 0 C0 2.31 0 4.62 0 7 C-0.66 5.68 -1.32 4.36 -2 3 C-2.66 3.66 -3.32 4.32 -4 5 C-4.33 3.68 -4.66 2.36 -5 1 C-3 0 -3 0 0 0 Z " fill="#494E99" transform="translate(146,261)"/>
<path d="M0 0 C2.125 0.9375 2.125 0.9375 4 2 C3.01 2.33 2.02 2.66 1 3 C1 3.99 1 4.98 1 6 C-0.32 5.34 -1.64 4.68 -3 4 C-2.67 3.01 -2.34 2.02 -2 1 C-1.34 0.67 -0.68 0.34 0 0 Z " fill="#583F83" transform="translate(191,282)"/>
<path d="M0 0 C0.99 0.33 1.98 0.66 3 1 C3 2.65 3 4.3 3 6 C2.01 6 1.02 6 0 6 C0 4.02 0 2.04 0 0 Z " fill="#6E5FCF" transform="translate(147,268)"/>
<path d="M0 0 C-0.33 0.66 -0.66 1.32 -1 2 C-3.3431213 1.74438677 -5.67843403 1.40729228 -8 1 C-8.33 0.34 -8.66 -0.32 -9 -1 C-5.23375329 -2.25541557 -3.62811066 -1.37061958 0 0 Z " fill="#524490" transform="translate(137,270)"/>
<path d="M0 0 C0.99 0 1.98 0 3 0 C5.29013653 3.4352048 5.17842973 4.985331 5 9 C4.67 9 4.34 9 4 9 C3.67 7.35 3.34 5.7 3 4 C2.01 3.67 1.02 3.34 0 3 C0 2.01 0 1.02 0 0 Z " fill="#BDBFC0" transform="translate(430,250)"/>
<path d="M0 0 C3.125 -0.1875 3.125 -0.1875 6 0 C5.67 0.66 5.34 1.32 5 2 C2.67843403 2.40729228 0.3431213 2.74438677 -2 3 C-1.34 2.01 -0.68 1.02 0 0 Z " fill="#F9F8F7" transform="translate(314,247)"/>
<path d="M0 0 C0.33 0 0.66 0 1 0 C1.33 2.31 1.66 4.62 2 7 C2.66 7 3.32 7 4 7 C4 7.66 4 8.32 4 9 C2.02 9.99 2.02 9.99 0 11 C0 7.37 0 3.74 0 0 Z " fill="#516DB2" transform="translate(104,230)"/>
<path d="M0 0 C2.0625 0.4375 2.0625 0.4375 4 1 C3.67 1.99 3.34 2.98 3 4 C2.01 4.33 1.02 4.66 0 5 C-0.5625 3.0625 -0.5625 3.0625 -1 1 C-0.67 0.67 -0.34 0.34 0 0 Z " fill="#3687AE" transform="translate(147,227)"/>
<path d="M0 0 C0.99 0.495 0.99 0.495 2 1 C2.40729228 3.32156597 2.74438677 5.6568787 3 8 C2.01 7.67 1.02 7.34 0 7 C0 4.69 0 2.38 0 0 Z " fill="#1DADE1" transform="translate(136,217)"/>
</svg>
